<svg width="910" height="623" viewBox="0 0 910 623" fill="none" xmlns="http://www.w3.org/2000/svg">
<path d="M32.363 145.795L0.288025 39.3647H32.363L51.1706 116.636H51.4622L70.2698 39.3647H102.345L70.2698 145.795H32.363Z" fill="black"/>
<path d="M101.166 145.795V39.3647H131.783V145.795H101.166Z" fill="black"/>
<path d="M138.46 145.795V39.3647H174.909C193.765 39.3647 207.47 43.5928 216.023 52.0489C224.576 60.4079 228.853 73.9182 228.853 92.58C228.853 111.242 224.576 124.801 216.023 133.257C207.47 141.616 193.765 145.795 174.909 145.795H138.46ZM176.804 122.468C182.539 122.468 187.01 121.593 190.217 119.844C193.425 118.094 195.66 115.033 196.924 110.659C198.285 106.285 198.965 100.21 198.965 92.4342C198.965 84.7557 198.285 78.7781 196.924 74.5014C195.66 70.1276 193.425 67.0659 190.217 65.3163C187.01 63.5668 182.539 62.692 176.804 62.692H167.619V122.468H176.804Z" fill="black"/>
<path d="M230.305 145.795V39.3647H307.577V62.692H259.464V79.8958H304.661V102.348H259.464V122.468H307.577V145.795H230.305ZM281.042 32.075H256.257L265.004 0H298.537L281.042 32.075Z" fill="black"/>
<path d="M361.646 147.253C350.08 147.253 340.117 145.115 331.758 140.838C323.496 136.464 317.179 130.195 312.805 122.031C308.431 113.866 306.244 104.049 306.244 92.58C306.244 81.1108 308.431 71.2939 312.805 63.1294C317.179 54.9648 323.496 48.7442 331.758 44.4676C340.117 40.0937 350.08 37.9068 361.646 37.9068C373.31 37.9068 383.273 40.0937 391.534 44.4676C399.796 48.7442 406.114 54.9648 410.488 63.1294C414.862 71.2939 417.048 81.1108 417.048 92.58C417.048 104.049 414.862 113.866 410.488 122.031C406.114 130.195 399.796 136.464 391.534 140.838C383.273 145.115 373.31 147.253 361.646 147.253ZM361.646 122.468C367.284 122.468 371.998 121.35 375.788 119.115C379.579 116.879 382.398 113.575 384.245 109.201C386.188 104.73 387.16 99.1894 387.16 92.58C387.16 85.9707 386.188 80.479 384.245 76.1052C382.398 71.6341 379.579 68.2808 375.788 66.0453C371.998 63.8098 367.284 62.692 361.646 62.692C356.009 62.692 351.295 63.8098 347.504 66.0453C343.713 68.2808 340.846 71.6341 338.902 76.1052C337.055 80.479 336.132 85.9707 336.132 92.58C336.132 99.1894 337.055 104.73 338.902 109.201C340.846 113.575 343.713 116.879 347.504 119.115C351.295 121.35 356.009 122.468 361.646 122.468Z" fill="black"/>
<path d="M418.552 145.795V39.3647H455.001C473.857 39.3647 487.562 43.5928 496.115 52.0489C504.668 60.4079 508.945 73.9182 508.945 92.58C508.945 111.242 504.668 124.801 496.115 133.257C487.562 141.616 473.857 145.795 455.001 145.795H418.552ZM456.896 122.468C462.631 122.468 467.102 121.593 470.309 119.844C473.517 118.094 475.752 115.033 477.016 110.659C478.377 106.285 479.057 100.21 479.057 92.4342C479.057 84.7557 478.377 78.7781 477.016 74.5014C475.752 70.1276 473.517 67.0659 470.309 65.3163C467.102 63.5668 462.631 62.692 456.896 62.692H447.711V122.468H456.896Z" fill="black"/>
<path d="M510.397 145.795V39.3647H547.138C563.37 39.3647 575.373 42.1835 583.149 47.8209C591.022 53.4583 594.959 62.0602 594.959 73.6266C594.959 84.9987 591.362 93.6978 584.17 99.724C577.074 105.75 566.723 108.763 553.115 108.763H524.977V87.4772H548.596C554.33 87.4772 558.51 86.5052 561.134 84.5613C563.758 82.5202 565.071 79.3613 565.071 75.0846C565.071 70.8079 563.758 67.6976 561.134 65.7537C558.51 63.7126 554.33 62.692 548.596 62.692H539.556V145.795H510.397ZM570.173 145.795L532.412 98.1203H563.321L602.248 145.795H570.173Z" fill="black"/>
<path d="M652.417 147.253C640.85 147.253 630.888 145.115 622.529 140.838C614.267 136.464 607.949 130.195 603.575 122.031C599.201 113.866 597.014 104.049 597.014 92.58C597.014 81.1108 599.201 71.2939 603.575 63.1294C607.949 54.9648 614.267 48.7442 622.529 44.4676C630.888 40.0937 640.85 37.9068 652.417 37.9068C664.08 37.9068 674.043 40.0937 682.305 44.4676C690.566 48.7442 696.884 54.9648 701.258 63.1294C705.632 71.2939 707.819 81.1108 707.819 92.58C707.819 104.049 705.632 113.866 701.258 122.031C696.884 130.195 690.566 136.464 682.305 140.838C674.043 145.115 664.08 147.253 652.417 147.253ZM652.417 122.468C658.054 122.468 662.768 121.35 666.559 119.115C670.35 116.879 673.168 113.575 675.015 109.201C676.959 104.73 677.931 99.1894 677.931 92.58C677.931 85.9707 676.959 80.479 675.015 76.1052C673.168 71.6341 670.35 68.2808 666.559 66.0453C662.768 63.8098 658.054 62.692 652.417 62.692C646.779 62.692 642.065 63.8098 638.275 66.0453C634.484 68.2808 631.617 71.6341 629.673 76.1052C627.826 80.479 626.903 85.9707 626.903 92.58C626.903 99.1894 627.826 104.73 629.673 109.201C631.617 113.575 634.484 116.879 638.275 119.115C642.065 121.35 646.779 122.468 652.417 122.468ZM613.052 32.075L636.379 0H668.454L691.781 32.075H661.164L652.563 17.4954H652.271L643.669 32.075H613.052Z" fill="black"/>
<path d="M709.322 145.795V39.3647H745.48L764.579 96.2249H764.87L783.97 39.3647H820.127V145.795H790.968V84.5613H790.676L777.846 123.197H751.603L738.773 84.5613H738.482V145.795H709.322Z" fill="black"/>
<path d="M825.942 145.795V39.3647H903.213V62.692H855.101V79.8958H900.297V102.348H855.101V122.468H903.213V145.795H825.942Z" fill="black"/>
<path d="M38.4378 252.104L6.36283 145.674H38.4378L57.2454 222.945H57.537L76.3446 145.674H108.42L76.3446 252.104H38.4378Z" fill="#FF00D6"/>
<path d="M38.4378 252.104L6.36283 145.674H38.4378L57.2454 222.945H57.537L76.3446 145.674H108.42L76.3446 252.104H38.4378Z" fill="#FF00D6"/>
<path d="M107.241 252.104V145.674H137.858V252.104H107.241Z" fill="#FF00D6"/>
<path d="M107.241 252.104V145.674H137.858V252.104H107.241Z" fill="#FF00D6"/>
<path d="M144.535 252.104V145.674H180.983C199.84 145.674 213.544 149.902 222.098 158.358C230.651 166.717 234.928 180.227 234.928 198.889C234.928 217.551 230.651 231.11 222.098 239.566C213.544 247.925 199.84 252.104 180.983 252.104H144.535ZM182.879 228.777C188.613 228.777 193.084 227.902 196.292 226.153C199.499 224.403 201.735 221.342 202.999 216.968C204.359 212.594 205.04 206.519 205.04 198.743C205.04 191.065 204.359 185.087 202.999 180.811C201.735 176.437 199.499 173.375 196.292 171.625C193.084 169.876 188.613 169.001 182.879 169.001H173.694V228.777H182.879Z" fill="#FF00D6"/>
<path d="M144.535 252.104V145.674H180.983C199.84 145.674 213.544 149.902 222.098 158.358C230.651 166.717 234.928 180.227 234.928 198.889C234.928 217.551 230.651 231.11 222.098 239.566C213.544 247.925 199.84 252.104 180.983 252.104H144.535ZM182.879 228.777C188.613 228.777 193.084 227.902 196.292 226.153C199.499 224.403 201.735 221.342 202.999 216.968C204.359 212.594 205.04 206.519 205.04 198.743C205.04 191.065 204.359 185.087 202.999 180.811C201.735 176.437 199.499 173.375 196.292 171.625C193.084 169.876 188.613 169.001 182.879 169.001H173.694V228.777H182.879Z" fill="#FF00D6"/>
<path d="M236.38 252.104V145.674H313.652V169.001H265.539V186.205H310.736V208.657H265.539V228.777H313.652V252.104H236.38ZM287.117 138.384H262.332L271.079 106.309H304.612L287.117 138.384Z" fill="#FF00D6"/>
<path d="M236.38 252.104V145.674H313.652V169.001H265.539V186.205H310.736V208.657H265.539V228.777H313.652V252.104H236.38ZM287.117 138.384H262.332L271.079 106.309H304.612L287.117 138.384Z" fill="#FF00D6"/>
<path d="M367.721 253.562C356.155 253.562 346.192 251.424 337.833 247.147C329.571 242.774 323.253 236.504 318.88 228.34C314.506 220.175 312.319 210.358 312.319 198.889C312.319 187.42 314.506 177.603 318.88 169.438C323.253 161.274 329.571 155.053 337.833 150.777C346.192 146.403 356.155 144.216 367.721 144.216C379.385 144.216 389.347 146.403 397.609 150.777C405.871 155.053 412.189 161.274 416.562 169.438C420.936 177.603 423.123 187.42 423.123 198.889C423.123 210.358 420.936 220.175 416.562 228.34C412.189 236.504 405.871 242.774 397.609 247.147C389.347 251.424 379.385 253.562 367.721 253.562ZM367.721 228.777C373.358 228.777 378.073 227.659 381.863 225.424C385.654 223.188 388.473 219.884 390.319 215.51C392.263 211.039 393.235 205.499 393.235 198.889C393.235 192.28 392.263 186.788 390.319 182.414C388.473 177.943 385.654 174.59 381.863 172.354C378.073 170.119 373.358 169.001 367.721 169.001C362.084 169.001 357.37 170.119 353.579 172.354C349.788 174.59 346.921 177.943 344.977 182.414C343.13 186.788 342.207 192.28 342.207 198.889C342.207 205.499 343.13 211.039 344.977 215.51C346.921 219.884 349.788 223.188 353.579 225.424C357.37 227.659 362.084 228.777 367.721 228.777Z" fill="#FF00D6"/>
<path d="M367.721 253.562C356.155 253.562 346.192 251.424 337.833 247.147C329.571 242.774 323.253 236.504 318.88 228.34C314.506 220.175 312.319 210.358 312.319 198.889C312.319 187.42 314.506 177.603 318.88 169.438C323.253 161.274 329.571 155.053 337.833 150.777C346.192 146.403 356.155 144.216 367.721 144.216C379.385 144.216 389.347 146.403 397.609 150.777C405.871 155.053 412.189 161.274 416.562 169.438C420.936 177.603 423.123 187.42 423.123 198.889C423.123 210.358 420.936 220.175 416.562 228.34C412.189 236.504 405.871 242.774 397.609 247.147C389.347 251.424 379.385 253.562 367.721 253.562ZM367.721 228.777C373.358 228.777 378.073 227.659 381.863 225.424C385.654 223.188 388.473 219.884 390.319 215.51C392.263 211.039 393.235 205.499 393.235 198.889C393.235 192.28 392.263 186.788 390.319 182.414C388.473 177.943 385.654 174.59 381.863 172.354C378.073 170.119 373.358 169.001 367.721 169.001C362.084 169.001 357.37 170.119 353.579 172.354C349.788 174.59 346.921 177.943 344.977 182.414C343.13 186.788 342.207 192.28 342.207 198.889C342.207 205.499 343.13 211.039 344.977 215.51C346.921 219.884 349.788 223.188 353.579 225.424C357.37 227.659 362.084 228.777 367.721 228.777Z" fill="#FF00D6"/>
<path d="M424.627 252.104V145.674H461.076C479.932 145.674 493.637 149.902 502.19 158.358C510.743 166.717 515.02 180.227 515.02 198.889C515.02 217.551 510.743 231.11 502.19 239.566C493.637 247.925 479.932 252.104 461.076 252.104H424.627ZM462.971 228.777C468.706 228.777 473.177 227.902 476.384 226.153C479.592 224.403 481.827 221.342 483.091 216.968C484.451 212.594 485.132 206.519 485.132 198.743C485.132 191.065 484.451 185.087 483.091 180.811C481.827 176.437 479.592 173.375 476.384 171.625C473.177 169.876 468.706 169.001 462.971 169.001H453.786V228.777H462.971Z" fill="#FF00D6"/>
<path d="M424.627 252.104V145.674H461.076C479.932 145.674 493.637 149.902 502.19 158.358C510.743 166.717 515.02 180.227 515.02 198.889C515.02 217.551 510.743 231.11 502.19 239.566C493.637 247.925 479.932 252.104 461.076 252.104H424.627ZM462.971 228.777C468.706 228.777 473.177 227.902 476.384 226.153C479.592 224.403 481.827 221.342 483.091 216.968C484.451 212.594 485.132 206.519 485.132 198.743C485.132 191.065 484.451 185.087 483.091 180.811C481.827 176.437 479.592 173.375 476.384 171.625C473.177 169.876 468.706 169.001 462.971 169.001H453.786V228.777H462.971Z" fill="#FF00D6"/>
<path d="M516.472 252.104V145.674H553.213C569.444 145.674 581.448 148.493 589.224 154.13C597.097 159.767 601.033 168.369 601.033 179.936C601.033 191.308 597.437 200.007 590.245 206.033C583.149 212.059 572.798 215.072 559.19 215.072H531.052V193.786H554.671C560.405 193.786 564.585 192.814 567.209 190.87C569.833 188.829 571.145 185.67 571.145 181.394C571.145 177.117 569.833 174.007 567.209 172.063C564.585 170.022 560.405 169.001 554.671 169.001H545.631V252.104H516.472ZM576.248 252.104L538.487 204.429H569.396L608.323 252.104H576.248Z" fill="#FF00D6"/>
<path d="M516.472 252.104V145.674H553.213C569.444 145.674 581.448 148.493 589.224 154.13C597.097 159.767 601.033 168.369 601.033 179.936C601.033 191.308 597.437 200.007 590.245 206.033C583.149 212.059 572.798 215.072 559.19 215.072H531.052V193.786H554.671C560.405 193.786 564.585 192.814 567.209 190.87C569.833 188.829 571.145 185.67 571.145 181.394C571.145 177.117 569.833 174.007 567.209 172.063C564.585 170.022 560.405 169.001 554.671 169.001H545.631V252.104H516.472ZM576.248 252.104L538.487 204.429H569.396L608.323 252.104H576.248Z" fill="#FF00D6"/>
<path d="M658.492 253.562C646.925 253.562 636.962 251.424 628.604 247.147C620.342 242.774 614.024 236.504 609.65 228.34C605.276 220.175 603.089 210.358 603.089 198.889C603.089 187.42 605.276 177.603 609.65 169.438C614.024 161.274 620.342 155.053 628.604 150.777C636.962 146.403 646.925 144.216 658.492 144.216C670.155 144.216 680.118 146.403 688.38 150.777C696.641 155.053 702.959 161.274 707.333 169.438C711.707 177.603 713.894 187.42 713.894 198.889C713.894 210.358 711.707 220.175 707.333 228.34C702.959 236.504 696.641 242.774 688.38 247.147C680.118 251.424 670.155 253.562 658.492 253.562ZM658.492 228.777C664.129 228.777 668.843 227.659 672.634 225.424C676.424 223.188 679.243 219.884 681.09 215.51C683.034 211.039 684.006 205.499 684.006 198.889C684.006 192.28 683.034 186.788 681.09 182.414C679.243 177.943 676.424 174.59 672.634 172.354C668.843 170.119 664.129 169.001 658.492 169.001C652.854 169.001 648.14 170.119 644.349 172.354C640.559 174.59 637.691 177.943 635.747 182.414C633.901 186.788 632.977 192.28 632.977 198.889C632.977 205.499 633.901 211.039 635.747 215.51C637.691 219.884 640.559 223.188 644.349 225.424C648.14 227.659 652.854 228.777 658.492 228.777ZM619.127 138.384L642.454 106.309H674.529L697.856 138.384H667.239L658.637 123.805H658.346L649.744 138.384H619.127Z" fill="#FF00D6"/>
<path d="M658.492 253.562C646.925 253.562 636.962 251.424 628.604 247.147C620.342 242.774 614.024 236.504 609.65 228.34C605.276 220.175 603.089 210.358 603.089 198.889C603.089 187.42 605.276 177.603 609.65 169.438C614.024 161.274 620.342 155.053 628.604 150.777C636.962 146.403 646.925 144.216 658.492 144.216C670.155 144.216 680.118 146.403 688.38 150.777C696.641 155.053 702.959 161.274 707.333 169.438C711.707 177.603 713.894 187.42 713.894 198.889C713.894 210.358 711.707 220.175 707.333 228.34C702.959 236.504 696.641 242.774 688.38 247.147C680.118 251.424 670.155 253.562 658.492 253.562ZM658.492 228.777C664.129 228.777 668.843 227.659 672.634 225.424C676.424 223.188 679.243 219.884 681.09 215.51C683.034 211.039 684.006 205.499 684.006 198.889C684.006 192.28 683.034 186.788 681.09 182.414C679.243 177.943 676.424 174.59 672.634 172.354C668.843 170.119 664.129 169.001 658.492 169.001C652.854 169.001 648.14 170.119 644.349 172.354C640.559 174.59 637.691 177.943 635.747 182.414C633.901 186.788 632.977 192.28 632.977 198.889C632.977 205.499 633.901 211.039 635.747 215.51C637.691 219.884 640.559 223.188 644.349 225.424C648.14 227.659 652.854 228.777 658.492 228.777ZM619.127 138.384L642.454 106.309H674.529L697.856 138.384H667.239L658.637 123.805H658.346L649.744 138.384H619.127Z" fill="#FF00D6"/>
<path d="M715.397 252.104V145.674H751.555L770.654 202.534H770.945L790.044 145.674H826.202V252.104H797.043V190.87H796.751L783.921 229.506H757.678L744.848 190.87H744.556V252.104H715.397Z" fill="#FF00D6"/>
<path d="M715.397 252.104V145.674H751.555L770.654 202.534H770.945L790.044 145.674H826.202V252.104H797.043V190.87H796.751L783.921 229.506H757.678L744.848 190.87H744.556V252.104H715.397Z" fill="#FF00D6"/>
<path d="M832.016 252.104V145.674H909.288V169.001H861.175V186.205H906.372V208.657H861.175V228.777H909.288V252.104H832.016Z" fill="#FF00D6"/>
<path d="M832.016 252.104V145.674H909.288V169.001H861.175V186.205H906.372V208.657H861.175V228.777H909.288V252.104H832.016Z" fill="#FF00D6"/>
<path d="M38.4378 294.628L6.36283 188.197H38.4378L57.2454 265.469H57.537L76.3446 188.197H108.42L76.3446 294.628H38.4378Z" fill="#FF00D6"/>
<path d="M38.4378 294.628L6.36283 188.197H38.4378L57.2454 265.469H57.537L76.3446 188.197H108.42L76.3446 294.628H38.4378Z" fill="#FF3D00"/>
<path d="M38.4378 294.628L6.36283 188.197H38.4378L57.2454 265.469H57.537L76.3446 188.197H108.42L76.3446 294.628H38.4378Z" fill="#FF3D00"/>
<path d="M107.241 294.628V188.197H137.858V294.628H107.241Z" fill="#FF00D6"/>
<path d="M107.241 294.628V188.197H137.858V294.628H107.241Z" fill="#FF3D00"/>
<path d="M107.241 294.628V188.197H137.858V294.628H107.241Z" fill="#FF3D00"/>
<path d="M144.535 294.628V188.197H180.983C199.84 188.197 213.544 192.426 222.098 200.882C230.651 209.241 234.928 222.751 234.928 241.413C234.928 260.075 230.651 273.634 222.098 282.09C213.544 290.449 199.84 294.628 180.983 294.628H144.535ZM182.879 271.301C188.613 271.301 193.084 270.426 196.292 268.677C199.499 266.927 201.735 263.865 202.999 259.491C204.359 255.118 205.04 249.043 205.04 241.267C205.04 233.588 204.359 227.611 202.999 223.334C201.735 218.96 199.499 215.899 196.292 214.149C193.084 212.4 188.613 211.525 182.879 211.525H173.694V271.301H182.879Z" fill="#FF00D6"/>
<path d="M144.535 294.628V188.197H180.983C199.84 188.197 213.544 192.426 222.098 200.882C230.651 209.241 234.928 222.751 234.928 241.413C234.928 260.075 230.651 273.634 222.098 282.09C213.544 290.449 199.84 294.628 180.983 294.628H144.535ZM182.879 271.301C188.613 271.301 193.084 270.426 196.292 268.677C199.499 266.927 201.735 263.865 202.999 259.491C204.359 255.118 205.04 249.043 205.04 241.267C205.04 233.588 204.359 227.611 202.999 223.334C201.735 218.96 199.499 215.899 196.292 214.149C193.084 212.4 188.613 211.525 182.879 211.525H173.694V271.301H182.879Z" fill="#FF3D00"/>
<path d="M144.535 294.628V188.197H180.983C199.84 188.197 213.544 192.426 222.098 200.882C230.651 209.241 234.928 222.751 234.928 241.413C234.928 260.075 230.651 273.634 222.098 282.09C213.544 290.449 199.84 294.628 180.983 294.628H144.535ZM182.879 271.301C188.613 271.301 193.084 270.426 196.292 268.677C199.499 266.927 201.735 263.865 202.999 259.491C204.359 255.118 205.04 249.043 205.04 241.267C205.04 233.588 204.359 227.611 202.999 223.334C201.735 218.96 199.499 215.899 196.292 214.149C193.084 212.4 188.613 211.525 182.879 211.525H173.694V271.301H182.879Z" fill="#FF3D00"/>
<path d="M236.38 294.628V188.197H313.652V211.525H265.539V228.729H310.736V251.181H265.539V271.301H313.652V294.628H236.38ZM287.117 180.908H262.332L271.079 148.833H304.612L287.117 180.908Z" fill="#FF00D6"/>
<path d="M236.38 294.628V188.197H313.652V211.525H265.539V228.729H310.736V251.181H265.539V271.301H313.652V294.628H236.38ZM287.117 180.908H262.332L271.079 148.833H304.612L287.117 180.908Z" fill="#FF3D00"/>
<path d="M236.38 294.628V188.197H313.652V211.525H265.539V228.729H310.736V251.181H265.539V271.301H313.652V294.628H236.38ZM287.117 180.908H262.332L271.079 148.833H304.612L287.117 180.908Z" fill="#FF3D00"/>
<path d="M367.721 296.086C356.155 296.086 346.192 293.948 337.833 289.671C329.571 285.297 323.253 279.028 318.88 270.863C314.506 262.699 312.319 252.882 312.319 241.413C312.319 229.944 314.506 220.127 318.88 211.962C323.253 203.798 329.571 197.577 337.833 193.3C346.192 188.926 356.155 186.74 367.721 186.74C379.385 186.74 389.347 188.926 397.609 193.3C405.871 197.577 412.189 203.798 416.562 211.962C420.936 220.127 423.123 229.944 423.123 241.413C423.123 252.882 420.936 262.699 416.562 270.863C412.189 279.028 405.871 285.297 397.609 289.671C389.347 293.948 379.385 296.086 367.721 296.086ZM367.721 271.301C373.358 271.301 378.073 270.183 381.863 267.948C385.654 265.712 388.473 262.407 390.319 258.033C392.263 253.562 393.235 248.022 393.235 241.413C393.235 234.803 392.263 229.312 390.319 224.938C388.473 220.467 385.654 217.114 381.863 214.878C378.073 212.643 373.358 211.525 367.721 211.525C362.084 211.525 357.37 212.643 353.579 214.878C349.788 217.114 346.921 220.467 344.977 224.938C343.13 229.312 342.207 234.803 342.207 241.413C342.207 248.022 343.13 253.562 344.977 258.033C346.921 262.407 349.788 265.712 353.579 267.948C357.37 270.183 362.084 271.301 367.721 271.301Z" fill="#FF00D6"/>
<path d="M367.721 296.086C356.155 296.086 346.192 293.948 337.833 289.671C329.571 285.297 323.253 279.028 318.88 270.863C314.506 262.699 312.319 252.882 312.319 241.413C312.319 229.944 314.506 220.127 318.88 211.962C323.253 203.798 329.571 197.577 337.833 193.3C346.192 188.926 356.155 186.74 367.721 186.74C379.385 186.74 389.347 188.926 397.609 193.3C405.871 197.577 412.189 203.798 416.562 211.962C420.936 220.127 423.123 229.944 423.123 241.413C423.123 252.882 420.936 262.699 416.562 270.863C412.189 279.028 405.871 285.297 397.609 289.671C389.347 293.948 379.385 296.086 367.721 296.086ZM367.721 271.301C373.358 271.301 378.073 270.183 381.863 267.948C385.654 265.712 388.473 262.407 390.319 258.033C392.263 253.562 393.235 248.022 393.235 241.413C393.235 234.803 392.263 229.312 390.319 224.938C388.473 220.467 385.654 217.114 381.863 214.878C378.073 212.643 373.358 211.525 367.721 211.525C362.084 211.525 357.37 212.643 353.579 214.878C349.788 217.114 346.921 220.467 344.977 224.938C343.13 229.312 342.207 234.803 342.207 241.413C342.207 248.022 343.13 253.562 344.977 258.033C346.921 262.407 349.788 265.712 353.579 267.948C357.37 270.183 362.084 271.301 367.721 271.301Z" fill="#FF3D00"/>
<path d="M367.721 296.086C356.155 296.086 346.192 293.948 337.833 289.671C329.571 285.297 323.253 279.028 318.88 270.863C314.506 262.699 312.319 252.882 312.319 241.413C312.319 229.944 314.506 220.127 318.88 211.962C323.253 203.798 329.571 197.577 337.833 193.3C346.192 188.926 356.155 186.74 367.721 186.74C379.385 186.74 389.347 188.926 397.609 193.3C405.871 197.577 412.189 203.798 416.562 211.962C420.936 220.127 423.123 229.944 423.123 241.413C423.123 252.882 420.936 262.699 416.562 270.863C412.189 279.028 405.871 285.297 397.609 289.671C389.347 293.948 379.385 296.086 367.721 296.086ZM367.721 271.301C373.358 271.301 378.073 270.183 381.863 267.948C385.654 265.712 388.473 262.407 390.319 258.033C392.263 253.562 393.235 248.022 393.235 241.413C393.235 234.803 392.263 229.312 390.319 224.938C388.473 220.467 385.654 217.114 381.863 214.878C378.073 212.643 373.358 211.525 367.721 211.525C362.084 211.525 357.37 212.643 353.579 214.878C349.788 217.114 346.921 220.467 344.977 224.938C343.13 229.312 342.207 234.803 342.207 241.413C342.207 248.022 343.13 253.562 344.977 258.033C346.921 262.407 349.788 265.712 353.579 267.948C357.37 270.183 362.084 271.301 367.721 271.301Z" fill="#FF3D00"/>
<path d="M424.627 294.628V188.197H461.076C479.932 188.197 493.637 192.426 502.19 200.882C510.743 209.241 515.02 222.751 515.02 241.413C515.02 260.075 510.743 273.634 502.19 282.09C493.637 290.449 479.932 294.628 461.076 294.628H424.627ZM462.971 271.301C468.706 271.301 473.177 270.426 476.384 268.677C479.592 266.927 481.827 263.865 483.091 259.491C484.451 255.118 485.132 249.043 485.132 241.267C485.132 233.588 484.451 227.611 483.091 223.334C481.827 218.96 479.592 215.899 476.384 214.149C473.177 212.4 468.706 211.525 462.971 211.525H453.786V271.301H462.971Z" fill="#FF00D6"/>
<path d="M424.627 294.628V188.197H461.076C479.932 188.197 493.637 192.426 502.19 200.882C510.743 209.241 515.02 222.751 515.02 241.413C515.02 260.075 510.743 273.634 502.19 282.09C493.637 290.449 479.932 294.628 461.076 294.628H424.627ZM462.971 271.301C468.706 271.301 473.177 270.426 476.384 268.677C479.592 266.927 481.827 263.865 483.091 259.491C484.451 255.118 485.132 249.043 485.132 241.267C485.132 233.588 484.451 227.611 483.091 223.334C481.827 218.96 479.592 215.899 476.384 214.149C473.177 212.4 468.706 211.525 462.971 211.525H453.786V271.301H462.971Z" fill="#FF3D00"/>
<path d="M424.627 294.628V188.197H461.076C479.932 188.197 493.637 192.426 502.19 200.882C510.743 209.241 515.02 222.751 515.02 241.413C515.02 260.075 510.743 273.634 502.19 282.09C493.637 290.449 479.932 294.628 461.076 294.628H424.627ZM462.971 271.301C468.706 271.301 473.177 270.426 476.384 268.677C479.592 266.927 481.827 263.865 483.091 259.491C484.451 255.118 485.132 249.043 485.132 241.267C485.132 233.588 484.451 227.611 483.091 223.334C481.827 218.96 479.592 215.899 476.384 214.149C473.177 212.4 468.706 211.525 462.971 211.525H453.786V271.301H462.971Z" fill="#FF3D00"/>
<path d="M516.472 294.628V188.197H553.213C569.444 188.197 581.448 191.016 589.224 196.654C597.097 202.291 601.033 210.893 601.033 222.459C601.033 233.831 597.437 242.531 590.245 248.557C583.149 254.583 572.798 257.596 559.19 257.596H531.052V236.31H554.671C560.405 236.31 564.585 235.338 567.209 233.394C569.833 231.353 571.145 228.194 571.145 223.917C571.145 219.641 569.833 216.53 567.209 214.586C564.585 212.545 560.405 211.525 554.671 211.525H545.631V294.628H516.472ZM576.248 294.628L538.487 246.953H569.396L608.323 294.628H576.248Z" fill="#FF00D6"/>
<path d="M516.472 294.628V188.197H553.213C569.444 188.197 581.448 191.016 589.224 196.654C597.097 202.291 601.033 210.893 601.033 222.459C601.033 233.831 597.437 242.531 590.245 248.557C583.149 254.583 572.798 257.596 559.19 257.596H531.052V236.31H554.671C560.405 236.31 564.585 235.338 567.209 233.394C569.833 231.353 571.145 228.194 571.145 223.917C571.145 219.641 569.833 216.53 567.209 214.586C564.585 212.545 560.405 211.525 554.671 211.525H545.631V294.628H516.472ZM576.248 294.628L538.487 246.953H569.396L608.323 294.628H576.248Z" fill="#FF3D00"/>
<path d="M516.472 294.628V188.197H553.213C569.444 188.197 581.448 191.016 589.224 196.654C597.097 202.291 601.033 210.893 601.033 222.459C601.033 233.831 597.437 242.531 590.245 248.557C583.149 254.583 572.798 257.596 559.19 257.596H531.052V236.31H554.671C560.405 236.31 564.585 235.338 567.209 233.394C569.833 231.353 571.145 228.194 571.145 223.917C571.145 219.641 569.833 216.53 567.209 214.586C564.585 212.545 560.405 211.525 554.671 211.525H545.631V294.628H516.472ZM576.248 294.628L538.487 246.953H569.396L608.323 294.628H576.248Z" fill="#FF3D00"/>
<path d="M658.492 296.086C646.925 296.086 636.962 293.948 628.604 289.671C620.342 285.297 614.024 279.028 609.65 270.863C605.276 262.699 603.089 252.882 603.089 241.413C603.089 229.944 605.276 220.127 609.65 211.962C614.024 203.798 620.342 197.577 628.604 193.3C636.962 188.926 646.925 186.74 658.492 186.74C670.155 186.74 680.118 188.926 688.38 193.3C696.641 197.577 702.959 203.798 707.333 211.962C711.707 220.127 713.894 229.944 713.894 241.413C713.894 252.882 711.707 262.699 707.333 270.863C702.959 279.028 696.641 285.297 688.38 289.671C680.118 293.948 670.155 296.086 658.492 296.086ZM658.492 271.301C664.129 271.301 668.843 270.183 672.634 267.948C676.424 265.712 679.243 262.407 681.09 258.033C683.034 253.562 684.006 248.022 684.006 241.413C684.006 234.803 683.034 229.312 681.09 224.938C679.243 220.467 676.424 217.114 672.634 214.878C668.843 212.643 664.129 211.525 658.492 211.525C652.854 211.525 648.14 212.643 644.349 214.878C640.559 217.114 637.691 220.467 635.747 224.938C633.901 229.312 632.977 234.803 632.977 241.413C632.977 248.022 633.901 253.562 635.747 258.033C637.691 262.407 640.559 265.712 644.349 267.948C648.14 270.183 652.854 271.301 658.492 271.301ZM619.127 180.908L642.454 148.833H674.529L697.856 180.908H667.239L658.637 166.328H658.346L649.744 180.908H619.127Z" fill="#FF00D6"/>
<path d="M658.492 296.086C646.925 296.086 636.962 293.948 628.604 289.671C620.342 285.297 614.024 279.028 609.65 270.863C605.276 262.699 603.089 252.882 603.089 241.413C603.089 229.944 605.276 220.127 609.65 211.962C614.024 203.798 620.342 197.577 628.604 193.3C636.962 188.926 646.925 186.74 658.492 186.74C670.155 186.74 680.118 188.926 688.38 193.3C696.641 197.577 702.959 203.798 707.333 211.962C711.707 220.127 713.894 229.944 713.894 241.413C713.894 252.882 711.707 262.699 707.333 270.863C702.959 279.028 696.641 285.297 688.38 289.671C680.118 293.948 670.155 296.086 658.492 296.086ZM658.492 271.301C664.129 271.301 668.843 270.183 672.634 267.948C676.424 265.712 679.243 262.407 681.09 258.033C683.034 253.562 684.006 248.022 684.006 241.413C684.006 234.803 683.034 229.312 681.09 224.938C679.243 220.467 676.424 217.114 672.634 214.878C668.843 212.643 664.129 211.525 658.492 211.525C652.854 211.525 648.14 212.643 644.349 214.878C640.559 217.114 637.691 220.467 635.747 224.938C633.901 229.312 632.977 234.803 632.977 241.413C632.977 248.022 633.901 253.562 635.747 258.033C637.691 262.407 640.559 265.712 644.349 267.948C648.14 270.183 652.854 271.301 658.492 271.301ZM619.127 180.908L642.454 148.833H674.529L697.856 180.908H667.239L658.637 166.328H658.346L649.744 180.908H619.127Z" fill="#FF3D00"/>
<path d="M658.492 296.086C646.925 296.086 636.962 293.948 628.604 289.671C620.342 285.297 614.024 279.028 609.65 270.863C605.276 262.699 603.089 252.882 603.089 241.413C603.089 229.944 605.276 220.127 609.65 211.962C614.024 203.798 620.342 197.577 628.604 193.3C636.962 188.926 646.925 186.74 658.492 186.74C670.155 186.74 680.118 188.926 688.38 193.3C696.641 197.577 702.959 203.798 707.333 211.962C711.707 220.127 713.894 229.944 713.894 241.413C713.894 252.882 711.707 262.699 707.333 270.863C702.959 279.028 696.641 285.297 688.38 289.671C680.118 293.948 670.155 296.086 658.492 296.086ZM658.492 271.301C664.129 271.301 668.843 270.183 672.634 267.948C676.424 265.712 679.243 262.407 681.09 258.033C683.034 253.562 684.006 248.022 684.006 241.413C684.006 234.803 683.034 229.312 681.09 224.938C679.243 220.467 676.424 217.114 672.634 214.878C668.843 212.643 664.129 211.525 658.492 211.525C652.854 211.525 648.14 212.643 644.349 214.878C640.559 217.114 637.691 220.467 635.747 224.938C633.901 229.312 632.977 234.803 632.977 241.413C632.977 248.022 633.901 253.562 635.747 258.033C637.691 262.407 640.559 265.712 644.349 267.948C648.14 270.183 652.854 271.301 658.492 271.301ZM619.127 180.908L642.454 148.833H674.529L697.856 180.908H667.239L658.637 166.328H658.346L649.744 180.908H619.127Z" fill="#FF3D00"/>
<path d="M715.397 294.628V188.197H751.555L770.654 245.058H770.945L790.044 188.197H826.202V294.628H797.043V233.394H796.751L783.921 272.03H757.678L744.848 233.394H744.556V294.628H715.397Z" fill="#FF00D6"/>
<path d="M715.397 294.628V188.197H751.555L770.654 245.058H770.945L790.044 188.197H826.202V294.628H797.043V233.394H796.751L783.921 272.03H757.678L744.848 233.394H744.556V294.628H715.397Z" fill="#FF3D00"/>
<path d="M715.397 294.628V188.197H751.555L770.654 245.058H770.945L790.044 188.197H826.202V294.628H797.043V233.394H796.751L783.921 272.03H757.678L744.848 233.394H744.556V294.628H715.397Z" fill="#FF3D00"/>
<path d="M832.016 294.628V188.197H909.288V211.525H861.175V228.729H906.372V251.181H861.175V271.301H909.288V294.628H832.016Z" fill="#FF00D6"/>
<path d="M832.016 294.628V188.197H909.288V211.525H861.175V228.729H906.372V251.181H861.175V271.301H909.288V294.628H832.016Z" fill="#FF3D00"/>
<path d="M832.016 294.628V188.197H909.288V211.525H861.175V228.729H906.372V251.181H861.175V271.301H909.288V294.628H832.016Z" fill="#FF3D00"/>
<path d="M32.363 400.937L0.288025 294.507H32.363L51.1706 371.778H51.4622L70.2698 294.507H102.345L70.2698 400.937H32.363Z" fill="#FF00D6"/>
<path d="M32.363 400.937L0.288025 294.507H32.363L51.1706 371.778H51.4622L70.2698 294.507H102.345L70.2698 400.937H32.363Z" fill="#FF3D00"/>
<path d="M32.363 400.937L0.288025 294.507H32.363L51.1706 371.778H51.4622L70.2698 294.507H102.345L70.2698 400.937H32.363Z" fill="#FAFF00"/>
<path d="M101.166 400.937V294.507H131.783V400.937H101.166Z" fill="#FF00D6"/>
<path d="M101.166 400.937V294.507H131.783V400.937H101.166Z" fill="#FF3D00"/>
<path d="M101.166 400.937V294.507H131.783V400.937H101.166Z" fill="#FAFF00"/>
<path d="M138.46 400.937V294.507H174.909C193.765 294.507 207.47 298.735 216.023 307.191C224.576 315.55 228.853 329.06 228.853 347.722C228.853 366.384 224.576 379.943 216.023 388.399C207.47 396.758 193.765 400.937 174.909 400.937H138.46ZM176.804 377.61C182.539 377.61 187.01 376.735 190.217 374.986C193.425 373.236 195.66 370.174 196.924 365.801C198.285 361.427 198.965 355.352 198.965 347.576C198.965 339.898 198.285 333.92 196.924 329.643C195.66 325.269 193.425 322.208 190.217 320.458C187.01 318.709 182.539 317.834 176.804 317.834H167.619V377.61H176.804Z" fill="#FF00D6"/>
<path d="M138.46 400.937V294.507H174.909C193.765 294.507 207.47 298.735 216.023 307.191C224.576 315.55 228.853 329.06 228.853 347.722C228.853 366.384 224.576 379.943 216.023 388.399C207.47 396.758 193.765 400.937 174.909 400.937H138.46ZM176.804 377.61C182.539 377.61 187.01 376.735 190.217 374.986C193.425 373.236 195.66 370.174 196.924 365.801C198.285 361.427 198.965 355.352 198.965 347.576C198.965 339.898 198.285 333.92 196.924 329.643C195.66 325.269 193.425 322.208 190.217 320.458C187.01 318.709 182.539 317.834 176.804 317.834H167.619V377.61H176.804Z" fill="#FF3D00"/>
<path d="M138.46 400.937V294.507H174.909C193.765 294.507 207.47 298.735 216.023 307.191C224.576 315.55 228.853 329.06 228.853 347.722C228.853 366.384 224.576 379.943 216.023 388.399C207.47 396.758 193.765 400.937 174.909 400.937H138.46ZM176.804 377.61C182.539 377.61 187.01 376.735 190.217 374.986C193.425 373.236 195.66 370.174 196.924 365.801C198.285 361.427 198.965 355.352 198.965 347.576C198.965 339.898 198.285 333.92 196.924 329.643C195.66 325.269 193.425 322.208 190.217 320.458C187.01 318.709 182.539 317.834 176.804 317.834H167.619V377.61H176.804Z" fill="#FAFF00"/>
<path d="M230.305 400.937V294.507H307.577V317.834H259.464V335.038H304.661V357.49H259.464V377.61H307.577V400.937H230.305ZM281.042 287.217H256.257L265.004 255.142H298.537L281.042 287.217Z" fill="#FF00D6"/>
<path d="M230.305 400.937V294.507H307.577V317.834H259.464V335.038H304.661V357.49H259.464V377.61H307.577V400.937H230.305ZM281.042 287.217H256.257L265.004 255.142H298.537L281.042 287.217Z" fill="#FF3D00"/>
<path d="M230.305 400.937V294.507H307.577V317.834H259.464V335.038H304.661V357.49H259.464V377.61H307.577V400.937H230.305ZM281.042 287.217H256.257L265.004 255.142H298.537L281.042 287.217Z" fill="#FAFF00"/>
<path d="M361.646 402.395C350.08 402.395 340.117 400.257 331.758 395.98C323.496 391.606 317.179 385.337 312.805 377.173C308.431 369.008 306.244 359.191 306.244 347.722C306.244 336.253 308.431 326.436 312.805 318.271C317.179 310.107 323.496 303.886 331.758 299.609C340.117 295.236 350.08 293.049 361.646 293.049C373.31 293.049 383.273 295.236 391.534 299.609C399.796 303.886 406.114 310.107 410.488 318.271C414.862 326.436 417.048 336.253 417.048 347.722C417.048 359.191 414.862 369.008 410.488 377.173C406.114 385.337 399.796 391.606 391.534 395.98C383.273 400.257 373.31 402.395 361.646 402.395ZM361.646 377.61C367.284 377.61 371.998 376.492 375.788 374.257C379.579 372.021 382.398 368.716 384.245 364.343C386.188 359.872 387.16 354.331 387.16 347.722C387.16 341.113 386.188 335.621 384.245 331.247C382.398 326.776 379.579 323.423 375.788 321.187C371.998 318.952 367.284 317.834 361.646 317.834C356.009 317.834 351.295 318.952 347.504 321.187C343.713 323.423 340.846 326.776 338.902 331.247C337.055 335.621 336.132 341.113 336.132 347.722C336.132 354.331 337.055 359.872 338.902 364.343C340.846 368.716 343.713 372.021 347.504 374.257C351.295 376.492 356.009 377.61 361.646 377.61Z" fill="#FF00D6"/>
<path d="M361.646 402.395C350.08 402.395 340.117 400.257 331.758 395.98C323.496 391.606 317.179 385.337 312.805 377.173C308.431 369.008 306.244 359.191 306.244 347.722C306.244 336.253 308.431 326.436 312.805 318.271C317.179 310.107 323.496 303.886 331.758 299.609C340.117 295.236 350.08 293.049 361.646 293.049C373.31 293.049 383.273 295.236 391.534 299.609C399.796 303.886 406.114 310.107 410.488 318.271C414.862 326.436 417.048 336.253 417.048 347.722C417.048 359.191 414.862 369.008 410.488 377.173C406.114 385.337 399.796 391.606 391.534 395.98C383.273 400.257 373.31 402.395 361.646 402.395ZM361.646 377.61C367.284 377.61 371.998 376.492 375.788 374.257C379.579 372.021 382.398 368.716 384.245 364.343C386.188 359.872 387.16 354.331 387.16 347.722C387.16 341.113 386.188 335.621 384.245 331.247C382.398 326.776 379.579 323.423 375.788 321.187C371.998 318.952 367.284 317.834 361.646 317.834C356.009 317.834 351.295 318.952 347.504 321.187C343.713 323.423 340.846 326.776 338.902 331.247C337.055 335.621 336.132 341.113 336.132 347.722C336.132 354.331 337.055 359.872 338.902 364.343C340.846 368.716 343.713 372.021 347.504 374.257C351.295 376.492 356.009 377.61 361.646 377.61Z" fill="#FF3D00"/>
<path d="M361.646 402.395C350.08 402.395 340.117 400.257 331.758 395.98C323.496 391.606 317.179 385.337 312.805 377.173C308.431 369.008 306.244 359.191 306.244 347.722C306.244 336.253 308.431 326.436 312.805 318.271C317.179 310.107 323.496 303.886 331.758 299.609C340.117 295.236 350.08 293.049 361.646 293.049C373.31 293.049 383.273 295.236 391.534 299.609C399.796 303.886 406.114 310.107 410.488 318.271C414.862 326.436 417.048 336.253 417.048 347.722C417.048 359.191 414.862 369.008 410.488 377.173C406.114 385.337 399.796 391.606 391.534 395.98C383.273 400.257 373.31 402.395 361.646 402.395ZM361.646 377.61C367.284 377.61 371.998 376.492 375.788 374.257C379.579 372.021 382.398 368.716 384.245 364.343C386.188 359.872 387.16 354.331 387.16 347.722C387.16 341.113 386.188 335.621 384.245 331.247C382.398 326.776 379.579 323.423 375.788 321.187C371.998 318.952 367.284 317.834 361.646 317.834C356.009 317.834 351.295 318.952 347.504 321.187C343.713 323.423 340.846 326.776 338.902 331.247C337.055 335.621 336.132 341.113 336.132 347.722C336.132 354.331 337.055 359.872 338.902 364.343C340.846 368.716 343.713 372.021 347.504 374.257C351.295 376.492 356.009 377.61 361.646 377.61Z" fill="#FAFF00"/>
<path d="M418.552 400.937V294.507H455.001C473.857 294.507 487.562 298.735 496.115 307.191C504.668 315.55 508.945 329.06 508.945 347.722C508.945 366.384 504.668 379.943 496.115 388.399C487.562 396.758 473.857 400.937 455.001 400.937H418.552ZM456.896 377.61C462.631 377.61 467.102 376.735 470.309 374.986C473.517 373.236 475.752 370.174 477.016 365.801C478.377 361.427 479.057 355.352 479.057 347.576C479.057 339.898 478.377 333.92 477.016 329.643C475.752 325.269 473.517 322.208 470.309 320.458C467.102 318.709 462.631 317.834 456.896 317.834H447.711V377.61H456.896Z" fill="#FF00D6"/>
<path d="M418.552 400.937V294.507H455.001C473.857 294.507 487.562 298.735 496.115 307.191C504.668 315.55 508.945 329.06 508.945 347.722C508.945 366.384 504.668 379.943 496.115 388.399C487.562 396.758 473.857 400.937 455.001 400.937H418.552ZM456.896 377.61C462.631 377.61 467.102 376.735 470.309 374.986C473.517 373.236 475.752 370.174 477.016 365.801C478.377 361.427 479.057 355.352 479.057 347.576C479.057 339.898 478.377 333.92 477.016 329.643C475.752 325.269 473.517 322.208 470.309 320.458C467.102 318.709 462.631 317.834 456.896 317.834H447.711V377.61H456.896Z" fill="#FF3D00"/>
<path d="M418.552 400.937V294.507H455.001C473.857 294.507 487.562 298.735 496.115 307.191C504.668 315.55 508.945 329.06 508.945 347.722C508.945 366.384 504.668 379.943 496.115 388.399C487.562 396.758 473.857 400.937 455.001 400.937H418.552ZM456.896 377.61C462.631 377.61 467.102 376.735 470.309 374.986C473.517 373.236 475.752 370.174 477.016 365.801C478.377 361.427 479.057 355.352 479.057 347.576C479.057 339.898 478.377 333.92 477.016 329.643C475.752 325.269 473.517 322.208 470.309 320.458C467.102 318.709 462.631 317.834 456.896 317.834H447.711V377.61H456.896Z" fill="#FAFF00"/>
<path d="M510.397 400.937V294.507H547.138C563.37 294.507 575.373 297.325 583.149 302.963C591.022 308.6 594.959 317.202 594.959 328.769C594.959 340.141 591.362 348.84 584.17 354.866C577.074 360.892 566.723 363.905 553.115 363.905H524.977V342.619H548.596C554.33 342.619 558.51 341.647 561.134 339.703C563.758 337.662 565.071 334.503 565.071 330.226C565.071 325.95 563.758 322.839 561.134 320.896C558.51 318.854 554.33 317.834 548.596 317.834H539.556V400.937H510.397ZM570.173 400.937L532.412 353.262H563.321L602.248 400.937H570.173Z" fill="#FF00D6"/>
<path d="M510.397 400.937V294.507H547.138C563.37 294.507 575.373 297.325 583.149 302.963C591.022 308.6 594.959 317.202 594.959 328.769C594.959 340.141 591.362 348.84 584.17 354.866C577.074 360.892 566.723 363.905 553.115 363.905H524.977V342.619H548.596C554.33 342.619 558.51 341.647 561.134 339.703C563.758 337.662 565.071 334.503 565.071 330.226C565.071 325.95 563.758 322.839 561.134 320.896C558.51 318.854 554.33 317.834 548.596 317.834H539.556V400.937H510.397ZM570.173 400.937L532.412 353.262H563.321L602.248 400.937H570.173Z" fill="#FF3D00"/>
<path d="M510.397 400.937V294.507H547.138C563.37 294.507 575.373 297.325 583.149 302.963C591.022 308.6 594.959 317.202 594.959 328.769C594.959 340.141 591.362 348.84 584.17 354.866C577.074 360.892 566.723 363.905 553.115 363.905H524.977V342.619H548.596C554.33 342.619 558.51 341.647 561.134 339.703C563.758 337.662 565.071 334.503 565.071 330.226C565.071 325.95 563.758 322.839 561.134 320.896C558.51 318.854 554.33 317.834 548.596 317.834H539.556V400.937H510.397ZM570.173 400.937L532.412 353.262H563.321L602.248 400.937H570.173Z" fill="#FAFF00"/>
<path d="M652.417 402.395C640.85 402.395 630.888 400.257 622.529 395.98C614.267 391.606 607.949 385.337 603.575 377.173C599.201 369.008 597.014 359.191 597.014 347.722C597.014 336.253 599.201 326.436 603.575 318.271C607.949 310.107 614.267 303.886 622.529 299.609C630.888 295.236 640.85 293.049 652.417 293.049C664.08 293.049 674.043 295.236 682.305 299.609C690.566 303.886 696.884 310.107 701.258 318.271C705.632 326.436 707.819 336.253 707.819 347.722C707.819 359.191 705.632 369.008 701.258 377.173C696.884 385.337 690.566 391.606 682.305 395.98C674.043 400.257 664.08 402.395 652.417 402.395ZM652.417 377.61C658.054 377.61 662.768 376.492 666.559 374.257C670.35 372.021 673.168 368.716 675.015 364.343C676.959 359.872 677.931 354.331 677.931 347.722C677.931 341.113 676.959 335.621 675.015 331.247C673.168 326.776 670.35 323.423 666.559 321.187C662.768 318.952 658.054 317.834 652.417 317.834C646.779 317.834 642.065 318.952 638.275 321.187C634.484 323.423 631.617 326.776 629.673 331.247C627.826 335.621 626.903 341.113 626.903 347.722C626.903 354.331 627.826 359.872 629.673 364.343C631.617 368.716 634.484 372.021 638.275 374.257C642.065 376.492 646.779 377.61 652.417 377.61ZM613.052 287.217L636.379 255.142H668.454L691.781 287.217H661.164L652.563 272.637H652.271L643.669 287.217H613.052Z" fill="#FF00D6"/>
<path d="M652.417 402.395C640.85 402.395 630.888 400.257 622.529 395.98C614.267 391.606 607.949 385.337 603.575 377.173C599.201 369.008 597.014 359.191 597.014 347.722C597.014 336.253 599.201 326.436 603.575 318.271C607.949 310.107 614.267 303.886 622.529 299.609C630.888 295.236 640.85 293.049 652.417 293.049C664.08 293.049 674.043 295.236 682.305 299.609C690.566 303.886 696.884 310.107 701.258 318.271C705.632 326.436 707.819 336.253 707.819 347.722C707.819 359.191 705.632 369.008 701.258 377.173C696.884 385.337 690.566 391.606 682.305 395.98C674.043 400.257 664.08 402.395 652.417 402.395ZM652.417 377.61C658.054 377.61 662.768 376.492 666.559 374.257C670.35 372.021 673.168 368.716 675.015 364.343C676.959 359.872 677.931 354.331 677.931 347.722C677.931 341.113 676.959 335.621 675.015 331.247C673.168 326.776 670.35 323.423 666.559 321.187C662.768 318.952 658.054 317.834 652.417 317.834C646.779 317.834 642.065 318.952 638.275 321.187C634.484 323.423 631.617 326.776 629.673 331.247C627.826 335.621 626.903 341.113 626.903 347.722C626.903 354.331 627.826 359.872 629.673 364.343C631.617 368.716 634.484 372.021 638.275 374.257C642.065 376.492 646.779 377.61 652.417 377.61ZM613.052 287.217L636.379 255.142H668.454L691.781 287.217H661.164L652.563 272.637H652.271L643.669 287.217H613.052Z" fill="#FF3D00"/>
<path d="M652.417 402.395C640.85 402.395 630.888 400.257 622.529 395.98C614.267 391.606 607.949 385.337 603.575 377.173C599.201 369.008 597.014 359.191 597.014 347.722C597.014 336.253 599.201 326.436 603.575 318.271C607.949 310.107 614.267 303.886 622.529 299.609C630.888 295.236 640.85 293.049 652.417 293.049C664.08 293.049 674.043 295.236 682.305 299.609C690.566 303.886 696.884 310.107 701.258 318.271C705.632 326.436 707.819 336.253 707.819 347.722C707.819 359.191 705.632 369.008 701.258 377.173C696.884 385.337 690.566 391.606 682.305 395.98C674.043 400.257 664.08 402.395 652.417 402.395ZM652.417 377.61C658.054 377.61 662.768 376.492 666.559 374.257C670.35 372.021 673.168 368.716 675.015 364.343C676.959 359.872 677.931 354.331 677.931 347.722C677.931 341.113 676.959 335.621 675.015 331.247C673.168 326.776 670.35 323.423 666.559 321.187C662.768 318.952 658.054 317.834 652.417 317.834C646.779 317.834 642.065 318.952 638.275 321.187C634.484 323.423 631.617 326.776 629.673 331.247C627.826 335.621 626.903 341.113 626.903 347.722C626.903 354.331 627.826 359.872 629.673 364.343C631.617 368.716 634.484 372.021 638.275 374.257C642.065 376.492 646.779 377.61 652.417 377.61ZM613.052 287.217L636.379 255.142H668.454L691.781 287.217H661.164L652.563 272.637H652.271L643.669 287.217H613.052Z" fill="#FAFF00"/>
<path d="M709.322 400.937V294.507H745.48L764.579 351.367H764.87L783.97 294.507H820.127V400.937H790.968V339.703H790.676L777.846 378.339H751.603L738.773 339.703H738.482V400.937H709.322Z" fill="#FF00D6"/>
<path d="M709.322 400.937V294.507H745.48L764.579 351.367H764.87L783.97 294.507H820.127V400.937H790.968V339.703H790.676L777.846 378.339H751.603L738.773 339.703H738.482V400.937H709.322Z" fill="#FF3D00"/>
<path d="M709.322 400.937V294.507H745.48L764.579 351.367H764.87L783.97 294.507H820.127V400.937H790.968V339.703H790.676L777.846 378.339H751.603L738.773 339.703H738.482V400.937H709.322Z" fill="#FAFF00"/>
<path d="M825.942 400.937V294.507H903.213V317.834H855.101V335.038H900.297V357.49H855.101V377.61H903.213V400.937H825.942Z" fill="#FF00D6"/>
<path d="M825.942 400.937V294.507H903.213V317.834H855.101V335.038H900.297V357.49H855.101V377.61H903.213V400.937H825.942Z" fill="#FF3D00"/>
<path d="M825.942 400.937V294.507H903.213V317.834H855.101V335.038H900.297V357.49H855.101V377.61H903.213V400.937H825.942Z" fill="#FAFF00"/>
<path d="M38.4378 464.723L6.36283 358.292H38.4378L57.2454 435.564H57.537L76.3446 358.292H108.42L76.3446 464.723H38.4378Z" fill="#FF00D6"/>
<path d="M38.4378 464.723L6.36283 358.292H38.4378L57.2454 435.564H57.537L76.3446 358.292H108.42L76.3446 464.723H38.4378Z" fill="#FF3D00"/>
<path d="M38.4378 464.723L6.36283 358.292H38.4378L57.2454 435.564H57.537L76.3446 358.292H108.42L76.3446 464.723H38.4378Z" fill="#00FFFF"/>
<path d="M107.241 464.723V358.292H137.858V464.723H107.241Z" fill="#FF00D6"/>
<path d="M107.241 464.723V358.292H137.858V464.723H107.241Z" fill="#FF3D00"/>
<path d="M107.241 464.723V358.292H137.858V464.723H107.241Z" fill="#00FFFF"/>
<path d="M144.535 464.723V358.292H180.983C199.84 358.292 213.544 362.52 222.098 370.976C230.651 379.335 234.928 392.846 234.928 411.507C234.928 430.169 230.651 443.728 222.098 452.184C213.544 460.543 199.84 464.723 180.983 464.723H144.535ZM182.879 441.395C188.613 441.395 193.084 440.521 196.292 438.771C199.499 437.022 201.735 433.96 202.999 429.586C204.359 425.212 205.04 419.137 205.04 411.362C205.04 403.683 204.359 397.705 202.999 393.429C201.735 389.055 199.499 385.993 196.292 384.244C193.084 382.494 188.613 381.619 182.879 381.619H173.694V441.395H182.879Z" fill="#FF00D6"/>
<path d="M144.535 464.723V358.292H180.983C199.84 358.292 213.544 362.52 222.098 370.976C230.651 379.335 234.928 392.846 234.928 411.507C234.928 430.169 230.651 443.728 222.098 452.184C213.544 460.543 199.84 464.723 180.983 464.723H144.535ZM182.879 441.395C188.613 441.395 193.084 440.521 196.292 438.771C199.499 437.022 201.735 433.96 202.999 429.586C204.359 425.212 205.04 419.137 205.04 411.362C205.04 403.683 204.359 397.705 202.999 393.429C201.735 389.055 199.499 385.993 196.292 384.244C193.084 382.494 188.613 381.619 182.879 381.619H173.694V441.395H182.879Z" fill="#FF3D00"/>
<path d="M144.535 464.723V358.292H180.983C199.84 358.292 213.544 362.52 222.098 370.976C230.651 379.335 234.928 392.846 234.928 411.507C234.928 430.169 230.651 443.728 222.098 452.184C213.544 460.543 199.84 464.723 180.983 464.723H144.535ZM182.879 441.395C188.613 441.395 193.084 440.521 196.292 438.771C199.499 437.022 201.735 433.96 202.999 429.586C204.359 425.212 205.04 419.137 205.04 411.362C205.04 403.683 204.359 397.705 202.999 393.429C201.735 389.055 199.499 385.993 196.292 384.244C193.084 382.494 188.613 381.619 182.879 381.619H173.694V441.395H182.879Z" fill="#00FFFF"/>
<path d="M236.38 464.723V358.292H313.652V381.619H265.539V398.823H310.736V421.276H265.539V441.395H313.652V464.723H236.38ZM287.117 351.002H262.332L271.079 318.927H304.612L287.117 351.002Z" fill="#FF00D6"/>
<path d="M236.38 464.723V358.292H313.652V381.619H265.539V398.823H310.736V421.276H265.539V441.395H313.652V464.723H236.38ZM287.117 351.002H262.332L271.079 318.927H304.612L287.117 351.002Z" fill="#FF3D00"/>
<path d="M236.38 464.723V358.292H313.652V381.619H265.539V398.823H310.736V421.276H265.539V441.395H313.652V464.723H236.38ZM287.117 351.002H262.332L271.079 318.927H304.612L287.117 351.002Z" fill="#00FFFF"/>
<path d="M367.721 466.181C356.155 466.181 346.192 464.042 337.833 459.766C329.571 455.392 323.253 449.123 318.88 440.958C314.506 432.793 312.319 422.977 312.319 411.507C312.319 400.038 314.506 390.221 318.88 382.057C323.253 373.892 329.571 367.672 337.833 363.395C346.192 359.021 356.155 356.834 367.721 356.834C379.385 356.834 389.347 359.021 397.609 363.395C405.871 367.672 412.189 373.892 416.562 382.057C420.936 390.221 423.123 400.038 423.123 411.507C423.123 422.977 420.936 432.793 416.562 440.958C412.189 449.123 405.871 455.392 397.609 459.766C389.347 464.042 379.385 466.181 367.721 466.181ZM367.721 441.395C373.358 441.395 378.073 440.278 381.863 438.042C385.654 435.807 388.473 432.502 390.319 428.128C392.263 423.657 393.235 418.117 393.235 411.507C393.235 404.898 392.263 399.406 390.319 395.032C388.473 390.561 385.654 387.208 381.863 384.973C378.073 382.737 373.358 381.619 367.721 381.619C362.084 381.619 357.37 382.737 353.579 384.973C349.788 387.208 346.921 390.561 344.977 395.032C343.13 399.406 342.207 404.898 342.207 411.507C342.207 418.117 343.13 423.657 344.977 428.128C346.921 432.502 349.788 435.807 353.579 438.042C357.37 440.278 362.084 441.395 367.721 441.395Z" fill="#FF00D6"/>
<path d="M367.721 466.181C356.155 466.181 346.192 464.042 337.833 459.766C329.571 455.392 323.253 449.123 318.88 440.958C314.506 432.793 312.319 422.977 312.319 411.507C312.319 400.038 314.506 390.221 318.88 382.057C323.253 373.892 329.571 367.672 337.833 363.395C346.192 359.021 356.155 356.834 367.721 356.834C379.385 356.834 389.347 359.021 397.609 363.395C405.871 367.672 412.189 373.892 416.562 382.057C420.936 390.221 423.123 400.038 423.123 411.507C423.123 422.977 420.936 432.793 416.562 440.958C412.189 449.123 405.871 455.392 397.609 459.766C389.347 464.042 379.385 466.181 367.721 466.181ZM367.721 441.395C373.358 441.395 378.073 440.278 381.863 438.042C385.654 435.807 388.473 432.502 390.319 428.128C392.263 423.657 393.235 418.117 393.235 411.507C393.235 404.898 392.263 399.406 390.319 395.032C388.473 390.561 385.654 387.208 381.863 384.973C378.073 382.737 373.358 381.619 367.721 381.619C362.084 381.619 357.37 382.737 353.579 384.973C349.788 387.208 346.921 390.561 344.977 395.032C343.13 399.406 342.207 404.898 342.207 411.507C342.207 418.117 343.13 423.657 344.977 428.128C346.921 432.502 349.788 435.807 353.579 438.042C357.37 440.278 362.084 441.395 367.721 441.395Z" fill="#FF3D00"/>
<path d="M367.721 466.181C356.155 466.181 346.192 464.042 337.833 459.766C329.571 455.392 323.253 449.123 318.88 440.958C314.506 432.793 312.319 422.977 312.319 411.507C312.319 400.038 314.506 390.221 318.88 382.057C323.253 373.892 329.571 367.672 337.833 363.395C346.192 359.021 356.155 356.834 367.721 356.834C379.385 356.834 389.347 359.021 397.609 363.395C405.871 367.672 412.189 373.892 416.562 382.057C420.936 390.221 423.123 400.038 423.123 411.507C423.123 422.977 420.936 432.793 416.562 440.958C412.189 449.123 405.871 455.392 397.609 459.766C389.347 464.042 379.385 466.181 367.721 466.181ZM367.721 441.395C373.358 441.395 378.073 440.278 381.863 438.042C385.654 435.807 388.473 432.502 390.319 428.128C392.263 423.657 393.235 418.117 393.235 411.507C393.235 404.898 392.263 399.406 390.319 395.032C388.473 390.561 385.654 387.208 381.863 384.973C378.073 382.737 373.358 381.619 367.721 381.619C362.084 381.619 357.37 382.737 353.579 384.973C349.788 387.208 346.921 390.561 344.977 395.032C343.13 399.406 342.207 404.898 342.207 411.507C342.207 418.117 343.13 423.657 344.977 428.128C346.921 432.502 349.788 435.807 353.579 438.042C357.37 440.278 362.084 441.395 367.721 441.395Z" fill="#00FFFF"/>
<path d="M424.627 464.723V358.292H461.076C479.932 358.292 493.637 362.52 502.19 370.976C510.743 379.335 515.02 392.846 515.02 411.507C515.02 430.169 510.743 443.728 502.19 452.184C493.637 460.543 479.932 464.723 461.076 464.723H424.627ZM462.971 441.395C468.706 441.395 473.177 440.521 476.384 438.771C479.592 437.022 481.827 433.96 483.091 429.586C484.451 425.212 485.132 419.137 485.132 411.362C485.132 403.683 484.451 397.705 483.091 393.429C481.827 389.055 479.592 385.993 476.384 384.244C473.177 382.494 468.706 381.619 462.971 381.619H453.786V441.395H462.971Z" fill="#FF00D6"/>
<path d="M424.627 464.723V358.292H461.076C479.932 358.292 493.637 362.52 502.19 370.976C510.743 379.335 515.02 392.846 515.02 411.507C515.02 430.169 510.743 443.728 502.19 452.184C493.637 460.543 479.932 464.723 461.076 464.723H424.627ZM462.971 441.395C468.706 441.395 473.177 440.521 476.384 438.771C479.592 437.022 481.827 433.96 483.091 429.586C484.451 425.212 485.132 419.137 485.132 411.362C485.132 403.683 484.451 397.705 483.091 393.429C481.827 389.055 479.592 385.993 476.384 384.244C473.177 382.494 468.706 381.619 462.971 381.619H453.786V441.395H462.971Z" fill="#FF3D00"/>
<path d="M424.627 464.723V358.292H461.076C479.932 358.292 493.637 362.52 502.19 370.976C510.743 379.335 515.02 392.846 515.02 411.507C515.02 430.169 510.743 443.728 502.19 452.184C493.637 460.543 479.932 464.723 461.076 464.723H424.627ZM462.971 441.395C468.706 441.395 473.177 440.521 476.384 438.771C479.592 437.022 481.827 433.96 483.091 429.586C484.451 425.212 485.132 419.137 485.132 411.362C485.132 403.683 484.451 397.705 483.091 393.429C481.827 389.055 479.592 385.993 476.384 384.244C473.177 382.494 468.706 381.619 462.971 381.619H453.786V441.395H462.971Z" fill="#00FFFF"/>
<path d="M516.472 464.723V358.292H553.213C569.444 358.292 581.448 361.111 589.224 366.748C597.097 372.386 601.033 380.988 601.033 392.554C601.033 403.926 597.437 412.625 590.245 418.651C583.149 424.678 572.798 427.691 559.19 427.691H531.052V406.405H554.671C560.405 406.405 564.585 405.433 567.209 403.489C569.833 401.447 571.145 398.289 571.145 394.012C571.145 389.735 569.833 386.625 567.209 384.681C564.585 382.64 560.405 381.619 554.671 381.619H545.631V464.723H516.472ZM576.248 464.723L538.487 417.048H569.396L608.323 464.723H576.248Z" fill="#FF00D6"/>
<path d="M516.472 464.723V358.292H553.213C569.444 358.292 581.448 361.111 589.224 366.748C597.097 372.386 601.033 380.988 601.033 392.554C601.033 403.926 597.437 412.625 590.245 418.651C583.149 424.678 572.798 427.691 559.19 427.691H531.052V406.405H554.671C560.405 406.405 564.585 405.433 567.209 403.489C569.833 401.447 571.145 398.289 571.145 394.012C571.145 389.735 569.833 386.625 567.209 384.681C564.585 382.64 560.405 381.619 554.671 381.619H545.631V464.723H516.472ZM576.248 464.723L538.487 417.048H569.396L608.323 464.723H576.248Z" fill="#FF3D00"/>
<path d="M516.472 464.723V358.292H553.213C569.444 358.292 581.448 361.111 589.224 366.748C597.097 372.386 601.033 380.988 601.033 392.554C601.033 403.926 597.437 412.625 590.245 418.651C583.149 424.678 572.798 427.691 559.19 427.691H531.052V406.405H554.671C560.405 406.405 564.585 405.433 567.209 403.489C569.833 401.447 571.145 398.289 571.145 394.012C571.145 389.735 569.833 386.625 567.209 384.681C564.585 382.64 560.405 381.619 554.671 381.619H545.631V464.723H516.472ZM576.248 464.723L538.487 417.048H569.396L608.323 464.723H576.248Z" fill="#00FFFF"/>
<path d="M658.492 466.181C646.925 466.181 636.962 464.042 628.604 459.766C620.342 455.392 614.024 449.123 609.65 440.958C605.276 432.793 603.089 422.977 603.089 411.507C603.089 400.038 605.276 390.221 609.65 382.057C614.024 373.892 620.342 367.672 628.604 363.395C636.962 359.021 646.925 356.834 658.492 356.834C670.155 356.834 680.118 359.021 688.38 363.395C696.641 367.672 702.959 373.892 707.333 382.057C711.707 390.221 713.894 400.038 713.894 411.507C713.894 422.977 711.707 432.793 707.333 440.958C702.959 449.123 696.641 455.392 688.38 459.766C680.118 464.042 670.155 466.181 658.492 466.181ZM658.492 441.395C664.129 441.395 668.843 440.278 672.634 438.042C676.424 435.807 679.243 432.502 681.09 428.128C683.034 423.657 684.006 418.117 684.006 411.507C684.006 404.898 683.034 399.406 681.09 395.032C679.243 390.561 676.424 387.208 672.634 384.973C668.843 382.737 664.129 381.619 658.492 381.619C652.854 381.619 648.14 382.737 644.349 384.973C640.559 387.208 637.691 390.561 635.747 395.032C633.901 399.406 632.977 404.898 632.977 411.507C632.977 418.117 633.901 423.657 635.747 428.128C637.691 432.502 640.559 435.807 644.349 438.042C648.14 440.278 652.854 441.395 658.492 441.395ZM619.127 351.002L642.454 318.927H674.529L697.856 351.002H667.239L658.637 336.423H658.346L649.744 351.002H619.127Z" fill="#FF00D6"/>
<path d="M658.492 466.181C646.925 466.181 636.962 464.042 628.604 459.766C620.342 455.392 614.024 449.123 609.65 440.958C605.276 432.793 603.089 422.977 603.089 411.507C603.089 400.038 605.276 390.221 609.65 382.057C614.024 373.892 620.342 367.672 628.604 363.395C636.962 359.021 646.925 356.834 658.492 356.834C670.155 356.834 680.118 359.021 688.38 363.395C696.641 367.672 702.959 373.892 707.333 382.057C711.707 390.221 713.894 400.038 713.894 411.507C713.894 422.977 711.707 432.793 707.333 440.958C702.959 449.123 696.641 455.392 688.38 459.766C680.118 464.042 670.155 466.181 658.492 466.181ZM658.492 441.395C664.129 441.395 668.843 440.278 672.634 438.042C676.424 435.807 679.243 432.502 681.09 428.128C683.034 423.657 684.006 418.117 684.006 411.507C684.006 404.898 683.034 399.406 681.09 395.032C679.243 390.561 676.424 387.208 672.634 384.973C668.843 382.737 664.129 381.619 658.492 381.619C652.854 381.619 648.14 382.737 644.349 384.973C640.559 387.208 637.691 390.561 635.747 395.032C633.901 399.406 632.977 404.898 632.977 411.507C632.977 418.117 633.901 423.657 635.747 428.128C637.691 432.502 640.559 435.807 644.349 438.042C648.14 440.278 652.854 441.395 658.492 441.395ZM619.127 351.002L642.454 318.927H674.529L697.856 351.002H667.239L658.637 336.423H658.346L649.744 351.002H619.127Z" fill="#FF3D00"/>
<path d="M658.492 466.181C646.925 466.181 636.962 464.042 628.604 459.766C620.342 455.392 614.024 449.123 609.65 440.958C605.276 432.793 603.089 422.977 603.089 411.507C603.089 400.038 605.276 390.221 609.65 382.057C614.024 373.892 620.342 367.672 628.604 363.395C636.962 359.021 646.925 356.834 658.492 356.834C670.155 356.834 680.118 359.021 688.38 363.395C696.641 367.672 702.959 373.892 707.333 382.057C711.707 390.221 713.894 400.038 713.894 411.507C713.894 422.977 711.707 432.793 707.333 440.958C702.959 449.123 696.641 455.392 688.38 459.766C680.118 464.042 670.155 466.181 658.492 466.181ZM658.492 441.395C664.129 441.395 668.843 440.278 672.634 438.042C676.424 435.807 679.243 432.502 681.09 428.128C683.034 423.657 684.006 418.117 684.006 411.507C684.006 404.898 683.034 399.406 681.09 395.032C679.243 390.561 676.424 387.208 672.634 384.973C668.843 382.737 664.129 381.619 658.492 381.619C652.854 381.619 648.14 382.737 644.349 384.973C640.559 387.208 637.691 390.561 635.747 395.032C633.901 399.406 632.977 404.898 632.977 411.507C632.977 418.117 633.901 423.657 635.747 428.128C637.691 432.502 640.559 435.807 644.349 438.042C648.14 440.278 652.854 441.395 658.492 441.395ZM619.127 351.002L642.454 318.927H674.529L697.856 351.002H667.239L658.637 336.423H658.346L649.744 351.002H619.127Z" fill="#00FFFF"/>
<path d="M715.397 464.723V358.292H751.555L770.654 415.152H770.945L790.044 358.292H826.202V464.723H797.043V403.489H796.751L783.921 442.124H757.678L744.848 403.489H744.556V464.723H715.397Z" fill="#FF00D6"/>
<path d="M715.397 464.723V358.292H751.555L770.654 415.152H770.945L790.044 358.292H826.202V464.723H797.043V403.489H796.751L783.921 442.124H757.678L744.848 403.489H744.556V464.723H715.397Z" fill="#FF3D00"/>
<path d="M715.397 464.723V358.292H751.555L770.654 415.152H770.945L790.044 358.292H826.202V464.723H797.043V403.489H796.751L783.921 442.124H757.678L744.848 403.489H744.556V464.723H715.397Z" fill="#00FFFF"/>
<path d="M832.016 464.723V358.292H909.288V381.619H861.175V398.823H906.372V421.276H861.175V441.395H909.288V464.723H832.016Z" fill="#FF00D6"/>
<path d="M832.016 464.723V358.292H909.288V381.619H861.175V398.823H906.372V421.276H861.175V441.395H909.288V464.723H832.016Z" fill="#FF3D00"/>
<path d="M832.016 464.723V358.292H909.288V381.619H861.175V398.823H906.372V421.276H861.175V441.395H909.288V464.723H832.016Z" fill="#00FFFF"/>
<path d="M38.4378 574.069L6.36283 467.639H38.4378L57.2454 544.91H57.537L76.3446 467.639H108.42L76.3446 574.069H38.4378Z" fill="#FF00D6"/>
<path d="M38.4378 574.069L6.36283 467.639H38.4378L57.2454 544.91H57.537L76.3446 467.639H108.42L76.3446 574.069H38.4378Z" fill="#FF3D00"/>
<path d="M38.4378 574.069L6.36283 467.639H38.4378L57.2454 544.91H57.537L76.3446 467.639H108.42L76.3446 574.069H38.4378Z" fill="#001AFF"/>
<path d="M107.241 574.069V467.639H137.858V574.069H107.241Z" fill="#FF00D6"/>
<path d="M107.241 574.069V467.639H137.858V574.069H107.241Z" fill="#FF3D00"/>
<path d="M107.241 574.069V467.639H137.858V574.069H107.241Z" fill="#001AFF"/>
<path d="M144.535 574.069V467.639H180.983C199.84 467.639 213.544 471.867 222.098 480.323C230.651 488.682 234.928 502.192 234.928 520.854C234.928 539.516 230.651 553.075 222.098 561.531C213.544 569.89 199.84 574.069 180.983 574.069H144.535ZM182.879 550.742C188.613 550.742 193.084 549.867 196.292 548.118C199.499 546.368 201.735 543.306 202.999 538.933C204.359 534.559 205.04 528.484 205.04 520.708C205.04 513.03 204.359 507.052 202.999 502.775C201.735 498.401 199.499 495.34 196.292 493.59C193.084 491.841 188.613 490.966 182.879 490.966H173.694V550.742H182.879Z" fill="#FF00D6"/>
<path d="M144.535 574.069V467.639H180.983C199.84 467.639 213.544 471.867 222.098 480.323C230.651 488.682 234.928 502.192 234.928 520.854C234.928 539.516 230.651 553.075 222.098 561.531C213.544 569.89 199.84 574.069 180.983 574.069H144.535ZM182.879 550.742C188.613 550.742 193.084 549.867 196.292 548.118C199.499 546.368 201.735 543.306 202.999 538.933C204.359 534.559 205.04 528.484 205.04 520.708C205.04 513.03 204.359 507.052 202.999 502.775C201.735 498.401 199.499 495.34 196.292 493.59C193.084 491.841 188.613 490.966 182.879 490.966H173.694V550.742H182.879Z" fill="#FF3D00"/>
<path d="M144.535 574.069V467.639H180.983C199.84 467.639 213.544 471.867 222.098 480.323C230.651 488.682 234.928 502.192 234.928 520.854C234.928 539.516 230.651 553.075 222.098 561.531C213.544 569.89 199.84 574.069 180.983 574.069H144.535ZM182.879 550.742C188.613 550.742 193.084 549.867 196.292 548.118C199.499 546.368 201.735 543.306 202.999 538.933C204.359 534.559 205.04 528.484 205.04 520.708C205.04 513.03 204.359 507.052 202.999 502.775C201.735 498.401 199.499 495.34 196.292 493.59C193.084 491.841 188.613 490.966 182.879 490.966H173.694V550.742H182.879Z" fill="#001AFF"/>
<path d="M236.38 574.069V467.639H313.652V490.966H265.539V508.17H310.736V530.622H265.539V550.742H313.652V574.069H236.38ZM287.117 460.349H262.332L271.079 428.274H304.612L287.117 460.349Z" fill="#FF00D6"/>
<path d="M236.38 574.069V467.639H313.652V490.966H265.539V508.17H310.736V530.622H265.539V550.742H313.652V574.069H236.38ZM287.117 460.349H262.332L271.079 428.274H304.612L287.117 460.349Z" fill="#FF3D00"/>
<path d="M236.38 574.069V467.639H313.652V490.966H265.539V508.17H310.736V530.622H265.539V550.742H313.652V574.069H236.38ZM287.117 460.349H262.332L271.079 428.274H304.612L287.117 460.349Z" fill="#001AFF"/>
<path d="M367.721 575.527C356.155 575.527 346.192 573.389 337.833 569.112C329.571 564.738 323.253 558.469 318.88 550.305C314.506 542.14 312.319 532.323 312.319 520.854C312.319 509.385 314.506 499.568 318.88 491.403C323.253 483.239 329.571 477.018 337.833 472.741C346.192 468.368 356.155 466.181 367.721 466.181C379.385 466.181 389.347 468.368 397.609 472.741C405.871 477.018 412.189 483.239 416.562 491.403C420.936 499.568 423.123 509.385 423.123 520.854C423.123 532.323 420.936 542.14 416.562 550.305C412.189 558.469 405.871 564.738 397.609 569.112C389.347 573.389 379.385 575.527 367.721 575.527ZM367.721 550.742C373.358 550.742 378.073 549.624 381.863 547.389C385.654 545.153 388.473 541.848 390.319 537.475C392.263 533.003 393.235 527.463 393.235 520.854C393.235 514.244 392.263 508.753 390.319 504.379C388.473 499.908 385.654 496.555 381.863 494.319C378.073 492.084 373.358 490.966 367.721 490.966C362.084 490.966 357.37 492.084 353.579 494.319C349.788 496.555 346.921 499.908 344.977 504.379C343.13 508.753 342.207 514.244 342.207 520.854C342.207 527.463 343.13 533.003 344.977 537.475C346.921 541.848 349.788 545.153 353.579 547.389C357.37 549.624 362.084 550.742 367.721 550.742Z" fill="#FF00D6"/>
<path d="M367.721 575.527C356.155 575.527 346.192 573.389 337.833 569.112C329.571 564.738 323.253 558.469 318.88 550.305C314.506 542.14 312.319 532.323 312.319 520.854C312.319 509.385 314.506 499.568 318.88 491.403C323.253 483.239 329.571 477.018 337.833 472.741C346.192 468.368 356.155 466.181 367.721 466.181C379.385 466.181 389.347 468.368 397.609 472.741C405.871 477.018 412.189 483.239 416.562 491.403C420.936 499.568 423.123 509.385 423.123 520.854C423.123 532.323 420.936 542.14 416.562 550.305C412.189 558.469 405.871 564.738 397.609 569.112C389.347 573.389 379.385 575.527 367.721 575.527ZM367.721 550.742C373.358 550.742 378.073 549.624 381.863 547.389C385.654 545.153 388.473 541.848 390.319 537.475C392.263 533.003 393.235 527.463 393.235 520.854C393.235 514.244 392.263 508.753 390.319 504.379C388.473 499.908 385.654 496.555 381.863 494.319C378.073 492.084 373.358 490.966 367.721 490.966C362.084 490.966 357.37 492.084 353.579 494.319C349.788 496.555 346.921 499.908 344.977 504.379C343.13 508.753 342.207 514.244 342.207 520.854C342.207 527.463 343.13 533.003 344.977 537.475C346.921 541.848 349.788 545.153 353.579 547.389C357.37 549.624 362.084 550.742 367.721 550.742Z" fill="#FF3D00"/>
<path d="M367.721 575.527C356.155 575.527 346.192 573.389 337.833 569.112C329.571 564.738 323.253 558.469 318.88 550.305C314.506 542.14 312.319 532.323 312.319 520.854C312.319 509.385 314.506 499.568 318.88 491.403C323.253 483.239 329.571 477.018 337.833 472.741C346.192 468.368 356.155 466.181 367.721 466.181C379.385 466.181 389.347 468.368 397.609 472.741C405.871 477.018 412.189 483.239 416.562 491.403C420.936 499.568 423.123 509.385 423.123 520.854C423.123 532.323 420.936 542.14 416.562 550.305C412.189 558.469 405.871 564.738 397.609 569.112C389.347 573.389 379.385 575.527 367.721 575.527ZM367.721 550.742C373.358 550.742 378.073 549.624 381.863 547.389C385.654 545.153 388.473 541.848 390.319 537.475C392.263 533.003 393.235 527.463 393.235 520.854C393.235 514.244 392.263 508.753 390.319 504.379C388.473 499.908 385.654 496.555 381.863 494.319C378.073 492.084 373.358 490.966 367.721 490.966C362.084 490.966 357.37 492.084 353.579 494.319C349.788 496.555 346.921 499.908 344.977 504.379C343.13 508.753 342.207 514.244 342.207 520.854C342.207 527.463 343.13 533.003 344.977 537.475C346.921 541.848 349.788 545.153 353.579 547.389C357.37 549.624 362.084 550.742 367.721 550.742Z" fill="#001AFF"/>
<path d="M424.627 574.069V467.639H461.076C479.932 467.639 493.637 471.867 502.19 480.323C510.743 488.682 515.02 502.192 515.02 520.854C515.02 539.516 510.743 553.075 502.19 561.531C493.637 569.89 479.932 574.069 461.076 574.069H424.627ZM462.971 550.742C468.706 550.742 473.177 549.867 476.384 548.118C479.592 546.368 481.827 543.306 483.091 538.933C484.451 534.559 485.132 528.484 485.132 520.708C485.132 513.03 484.451 507.052 483.091 502.775C481.827 498.401 479.592 495.34 476.384 493.59C473.177 491.841 468.706 490.966 462.971 490.966H453.786V550.742H462.971Z" fill="#FF00D6"/>
<path d="M424.627 574.069V467.639H461.076C479.932 467.639 493.637 471.867 502.19 480.323C510.743 488.682 515.02 502.192 515.02 520.854C515.02 539.516 510.743 553.075 502.19 561.531C493.637 569.89 479.932 574.069 461.076 574.069H424.627ZM462.971 550.742C468.706 550.742 473.177 549.867 476.384 548.118C479.592 546.368 481.827 543.306 483.091 538.933C484.451 534.559 485.132 528.484 485.132 520.708C485.132 513.03 484.451 507.052 483.091 502.775C481.827 498.401 479.592 495.34 476.384 493.59C473.177 491.841 468.706 490.966 462.971 490.966H453.786V550.742H462.971Z" fill="#FF3D00"/>
<path d="M424.627 574.069V467.639H461.076C479.932 467.639 493.637 471.867 502.19 480.323C510.743 488.682 515.02 502.192 515.02 520.854C515.02 539.516 510.743 553.075 502.19 561.531C493.637 569.89 479.932 574.069 461.076 574.069H424.627ZM462.971 550.742C468.706 550.742 473.177 549.867 476.384 548.118C479.592 546.368 481.827 543.306 483.091 538.933C484.451 534.559 485.132 528.484 485.132 520.708C485.132 513.03 484.451 507.052 483.091 502.775C481.827 498.401 479.592 495.34 476.384 493.59C473.177 491.841 468.706 490.966 462.971 490.966H453.786V550.742H462.971Z" fill="#001AFF"/>
<path d="M516.472 574.069V467.639H553.213C569.444 467.639 581.448 470.457 589.224 476.095C597.097 481.732 601.033 490.334 601.033 501.901C601.033 513.273 597.437 521.972 590.245 527.998C583.149 534.024 572.798 537.037 559.19 537.037H531.052V515.751H554.671C560.405 515.751 564.585 514.779 567.209 512.835C569.833 510.794 571.145 507.635 571.145 503.358C571.145 499.082 569.833 495.971 567.209 494.028C564.585 491.986 560.405 490.966 554.671 490.966H545.631V574.069H516.472ZM576.248 574.069L538.487 526.394H569.396L608.323 574.069H576.248Z" fill="#FF00D6"/>
<path d="M516.472 574.069V467.639H553.213C569.444 467.639 581.448 470.457 589.224 476.095C597.097 481.732 601.033 490.334 601.033 501.901C601.033 513.273 597.437 521.972 590.245 527.998C583.149 534.024 572.798 537.037 559.19 537.037H531.052V515.751H554.671C560.405 515.751 564.585 514.779 567.209 512.835C569.833 510.794 571.145 507.635 571.145 503.358C571.145 499.082 569.833 495.971 567.209 494.028C564.585 491.986 560.405 490.966 554.671 490.966H545.631V574.069H516.472ZM576.248 574.069L538.487 526.394H569.396L608.323 574.069H576.248Z" fill="#FF3D00"/>
<path d="M516.472 574.069V467.639H553.213C569.444 467.639 581.448 470.457 589.224 476.095C597.097 481.732 601.033 490.334 601.033 501.901C601.033 513.273 597.437 521.972 590.245 527.998C583.149 534.024 572.798 537.037 559.19 537.037H531.052V515.751H554.671C560.405 515.751 564.585 514.779 567.209 512.835C569.833 510.794 571.145 507.635 571.145 503.358C571.145 499.082 569.833 495.971 567.209 494.028C564.585 491.986 560.405 490.966 554.671 490.966H545.631V574.069H516.472ZM576.248 574.069L538.487 526.394H569.396L608.323 574.069H576.248Z" fill="#001AFF"/>
<path d="M658.492 575.527C646.925 575.527 636.962 573.389 628.604 569.112C620.342 564.738 614.024 558.469 609.65 550.305C605.276 542.14 603.089 532.323 603.089 520.854C603.089 509.385 605.276 499.568 609.65 491.403C614.024 483.239 620.342 477.018 628.604 472.741C636.962 468.368 646.925 466.181 658.492 466.181C670.155 466.181 680.118 468.368 688.38 472.741C696.641 477.018 702.959 483.239 707.333 491.403C711.707 499.568 713.894 509.385 713.894 520.854C713.894 532.323 711.707 542.14 707.333 550.305C702.959 558.469 696.641 564.738 688.38 569.112C680.118 573.389 670.155 575.527 658.492 575.527ZM658.492 550.742C664.129 550.742 668.843 549.624 672.634 547.389C676.424 545.153 679.243 541.848 681.09 537.475C683.034 533.003 684.006 527.463 684.006 520.854C684.006 514.244 683.034 508.753 681.09 504.379C679.243 499.908 676.424 496.555 672.634 494.319C668.843 492.084 664.129 490.966 658.492 490.966C652.854 490.966 648.14 492.084 644.349 494.319C640.559 496.555 637.691 499.908 635.747 504.379C633.901 508.753 632.977 514.244 632.977 520.854C632.977 527.463 633.901 533.003 635.747 537.475C637.691 541.848 640.559 545.153 644.349 547.389C648.14 549.624 652.854 550.742 658.492 550.742ZM619.127 460.349L642.454 428.274H674.529L697.856 460.349H667.239L658.637 445.769H658.346L649.744 460.349H619.127Z" fill="#FF00D6"/>
<path d="M658.492 575.527C646.925 575.527 636.962 573.389 628.604 569.112C620.342 564.738 614.024 558.469 609.65 550.305C605.276 542.14 603.089 532.323 603.089 520.854C603.089 509.385 605.276 499.568 609.65 491.403C614.024 483.239 620.342 477.018 628.604 472.741C636.962 468.368 646.925 466.181 658.492 466.181C670.155 466.181 680.118 468.368 688.38 472.741C696.641 477.018 702.959 483.239 707.333 491.403C711.707 499.568 713.894 509.385 713.894 520.854C713.894 532.323 711.707 542.14 707.333 550.305C702.959 558.469 696.641 564.738 688.38 569.112C680.118 573.389 670.155 575.527 658.492 575.527ZM658.492 550.742C664.129 550.742 668.843 549.624 672.634 547.389C676.424 545.153 679.243 541.848 681.09 537.475C683.034 533.003 684.006 527.463 684.006 520.854C684.006 514.244 683.034 508.753 681.09 504.379C679.243 499.908 676.424 496.555 672.634 494.319C668.843 492.084 664.129 490.966 658.492 490.966C652.854 490.966 648.14 492.084 644.349 494.319C640.559 496.555 637.691 499.908 635.747 504.379C633.901 508.753 632.977 514.244 632.977 520.854C632.977 527.463 633.901 533.003 635.747 537.475C637.691 541.848 640.559 545.153 644.349 547.389C648.14 549.624 652.854 550.742 658.492 550.742ZM619.127 460.349L642.454 428.274H674.529L697.856 460.349H667.239L658.637 445.769H658.346L649.744 460.349H619.127Z" fill="#FF3D00"/>
<path d="M658.492 575.527C646.925 575.527 636.962 573.389 628.604 569.112C620.342 564.738 614.024 558.469 609.65 550.305C605.276 542.14 603.089 532.323 603.089 520.854C603.089 509.385 605.276 499.568 609.65 491.403C614.024 483.239 620.342 477.018 628.604 472.741C636.962 468.368 646.925 466.181 658.492 466.181C670.155 466.181 680.118 468.368 688.38 472.741C696.641 477.018 702.959 483.239 707.333 491.403C711.707 499.568 713.894 509.385 713.894 520.854C713.894 532.323 711.707 542.14 707.333 550.305C702.959 558.469 696.641 564.738 688.38 569.112C680.118 573.389 670.155 575.527 658.492 575.527ZM658.492 550.742C664.129 550.742 668.843 549.624 672.634 547.389C676.424 545.153 679.243 541.848 681.09 537.475C683.034 533.003 684.006 527.463 684.006 520.854C684.006 514.244 683.034 508.753 681.09 504.379C679.243 499.908 676.424 496.555 672.634 494.319C668.843 492.084 664.129 490.966 658.492 490.966C652.854 490.966 648.14 492.084 644.349 494.319C640.559 496.555 637.691 499.908 635.747 504.379C633.901 508.753 632.977 514.244 632.977 520.854C632.977 527.463 633.901 533.003 635.747 537.475C637.691 541.848 640.559 545.153 644.349 547.389C648.14 549.624 652.854 550.742 658.492 550.742ZM619.127 460.349L642.454 428.274H674.529L697.856 460.349H667.239L658.637 445.769H658.346L649.744 460.349H619.127Z" fill="#001AFF"/>
<path d="M715.397 574.069V467.639H751.555L770.654 524.499H770.945L790.044 467.639H826.202V574.069H797.043V512.835H796.751L783.921 551.471H757.678L744.848 512.835H744.556V574.069H715.397Z" fill="#FF00D6"/>
<path d="M715.397 574.069V467.639H751.555L770.654 524.499H770.945L790.044 467.639H826.202V574.069H797.043V512.835H796.751L783.921 551.471H757.678L744.848 512.835H744.556V574.069H715.397Z" fill="#FF3D00"/>
<path d="M715.397 574.069V467.639H751.555L770.654 524.499H770.945L790.044 467.639H826.202V574.069H797.043V512.835H796.751L783.921 551.471H757.678L744.848 512.835H744.556V574.069H715.397Z" fill="#001AFF"/>
<path d="M832.016 574.069V467.639H909.288V490.966H861.175V508.17H906.372V530.622H861.175V550.742H909.288V574.069H832.016Z" fill="#FF00D6"/>
<path d="M832.016 574.069V467.639H909.288V490.966H861.175V508.17H906.372V530.622H861.175V550.742H909.288V574.069H832.016Z" fill="#FF3D00"/>
<path d="M832.016 574.069V467.639H909.288V490.966H861.175V508.17H906.372V530.622H861.175V550.742H909.288V574.069H832.016Z" fill="#001AFF"/>
<path d="M38.4378 677.341L6.36283 570.91H38.4378L57.2454 648.182H57.537L76.3446 570.91H108.42L76.3446 677.341H38.4378Z" fill="#FF00D6"/>
<path d="M38.4378 677.341L6.36283 570.91H38.4378L57.2454 648.182H57.537L76.3446 570.91H108.42L76.3446 677.341H38.4378Z" fill="#FF3D00"/>
<path d="M38.4378 677.341L6.36283 570.91H38.4378L57.2454 648.182H57.537L76.3446 570.91H108.42L76.3446 677.341H38.4378Z" fill="#00FF38"/>
<path d="M107.241 677.341V570.91H137.858V677.341H107.241Z" fill="#FF00D6"/>
<path d="M107.241 677.341V570.91H137.858V677.341H107.241Z" fill="#FF3D00"/>
<path d="M107.241 677.341V570.91H137.858V677.341H107.241Z" fill="#00FF38"/>
<path d="M144.535 677.341V570.91H180.983C199.84 570.91 213.544 575.138 222.098 583.594C230.651 591.953 234.928 605.464 234.928 624.126C234.928 642.787 230.651 656.346 222.098 664.802C213.544 673.161 199.84 677.341 180.983 677.341H144.535ZM182.879 654.014C188.613 654.014 193.084 653.139 196.292 651.389C199.499 649.64 201.735 646.578 202.999 642.204C204.359 637.83 205.04 631.756 205.04 623.98C205.04 616.301 204.359 610.324 202.999 606.047C201.735 601.673 199.499 598.611 196.292 596.862C193.084 595.112 188.613 594.238 182.879 594.238H173.694V654.014H182.879Z" fill="#FF00D6"/>
<path d="M144.535 677.341V570.91H180.983C199.84 570.91 213.544 575.138 222.098 583.594C230.651 591.953 234.928 605.464 234.928 624.126C234.928 642.787 230.651 656.346 222.098 664.802C213.544 673.161 199.84 677.341 180.983 677.341H144.535ZM182.879 654.014C188.613 654.014 193.084 653.139 196.292 651.389C199.499 649.64 201.735 646.578 202.999 642.204C204.359 637.83 205.04 631.756 205.04 623.98C205.04 616.301 204.359 610.324 202.999 606.047C201.735 601.673 199.499 598.611 196.292 596.862C193.084 595.112 188.613 594.238 182.879 594.238H173.694V654.014H182.879Z" fill="#FF3D00"/>
<path d="M144.535 677.341V570.91H180.983C199.84 570.91 213.544 575.138 222.098 583.594C230.651 591.953 234.928 605.464 234.928 624.126C234.928 642.787 230.651 656.346 222.098 664.802C213.544 673.161 199.84 677.341 180.983 677.341H144.535ZM182.879 654.014C188.613 654.014 193.084 653.139 196.292 651.389C199.499 649.64 201.735 646.578 202.999 642.204C204.359 637.83 205.04 631.756 205.04 623.98C205.04 616.301 204.359 610.324 202.999 606.047C201.735 601.673 199.499 598.611 196.292 596.862C193.084 595.112 188.613 594.238 182.879 594.238H173.694V654.014H182.879Z" fill="#00FF38"/>
<path d="M236.38 677.341V570.91H313.652V594.238H265.539V611.441H310.736V633.894H265.539V654.014H313.652V677.341H236.38ZM287.117 563.621H262.332L271.079 531.546H304.612L287.117 563.621Z" fill="#FF00D6"/>
<path d="M236.38 677.341V570.91H313.652V594.238H265.539V611.441H310.736V633.894H265.539V654.014H313.652V677.341H236.38ZM287.117 563.621H262.332L271.079 531.546H304.612L287.117 563.621Z" fill="#FF3D00"/>
<path d="M236.38 677.341V570.91H313.652V594.238H265.539V611.441H310.736V633.894H265.539V654.014H313.652V677.341H236.38ZM287.117 563.621H262.332L271.079 531.546H304.612L287.117 563.621Z" fill="#00FF38"/>
<path d="M367.721 678.799C356.155 678.799 346.192 676.661 337.833 672.384C329.571 668.01 323.253 661.741 318.88 653.576C314.506 645.412 312.319 635.595 312.319 624.126C312.319 612.656 314.506 602.839 318.88 594.675C323.253 586.51 329.571 580.29 337.833 576.013C346.192 571.639 356.155 569.452 367.721 569.452C379.385 569.452 389.347 571.639 397.609 576.013C405.871 580.29 412.189 586.51 416.562 594.675C420.936 602.839 423.123 612.656 423.123 624.126C423.123 635.595 420.936 645.412 416.562 653.576C412.189 661.741 405.871 668.01 397.609 672.384C389.347 676.661 379.385 678.799 367.721 678.799ZM367.721 654.014C373.358 654.014 378.073 652.896 381.863 650.66C385.654 648.425 388.473 645.12 390.319 640.746C392.263 636.275 393.235 630.735 393.235 624.126C393.235 617.516 392.263 612.025 390.319 607.651C388.473 603.18 385.654 599.826 381.863 597.591C378.073 595.355 373.358 594.238 367.721 594.238C362.084 594.238 357.37 595.355 353.579 597.591C349.788 599.826 346.921 603.18 344.977 607.651C343.13 612.025 342.207 617.516 342.207 624.126C342.207 630.735 343.13 636.275 344.977 640.746C346.921 645.12 349.788 648.425 353.579 650.66C357.37 652.896 362.084 654.014 367.721 654.014Z" fill="#FF00D6"/>
<path d="M367.721 678.799C356.155 678.799 346.192 676.661 337.833 672.384C329.571 668.01 323.253 661.741 318.88 653.576C314.506 645.412 312.319 635.595 312.319 624.126C312.319 612.656 314.506 602.839 318.88 594.675C323.253 586.51 329.571 580.29 337.833 576.013C346.192 571.639 356.155 569.452 367.721 569.452C379.385 569.452 389.347 571.639 397.609 576.013C405.871 580.29 412.189 586.51 416.562 594.675C420.936 602.839 423.123 612.656 423.123 624.126C423.123 635.595 420.936 645.412 416.562 653.576C412.189 661.741 405.871 668.01 397.609 672.384C389.347 676.661 379.385 678.799 367.721 678.799ZM367.721 654.014C373.358 654.014 378.073 652.896 381.863 650.66C385.654 648.425 388.473 645.12 390.319 640.746C392.263 636.275 393.235 630.735 393.235 624.126C393.235 617.516 392.263 612.025 390.319 607.651C388.473 603.18 385.654 599.826 381.863 597.591C378.073 595.355 373.358 594.238 367.721 594.238C362.084 594.238 357.37 595.355 353.579 597.591C349.788 599.826 346.921 603.18 344.977 607.651C343.13 612.025 342.207 617.516 342.207 624.126C342.207 630.735 343.13 636.275 344.977 640.746C346.921 645.12 349.788 648.425 353.579 650.66C357.37 652.896 362.084 654.014 367.721 654.014Z" fill="#FF3D00"/>
<path d="M367.721 678.799C356.155 678.799 346.192 676.661 337.833 672.384C329.571 668.01 323.253 661.741 318.88 653.576C314.506 645.412 312.319 635.595 312.319 624.126C312.319 612.656 314.506 602.839 318.88 594.675C323.253 586.51 329.571 580.29 337.833 576.013C346.192 571.639 356.155 569.452 367.721 569.452C379.385 569.452 389.347 571.639 397.609 576.013C405.871 580.29 412.189 586.51 416.562 594.675C420.936 602.839 423.123 612.656 423.123 624.126C423.123 635.595 420.936 645.412 416.562 653.576C412.189 661.741 405.871 668.01 397.609 672.384C389.347 676.661 379.385 678.799 367.721 678.799ZM367.721 654.014C373.358 654.014 378.073 652.896 381.863 650.66C385.654 648.425 388.473 645.12 390.319 640.746C392.263 636.275 393.235 630.735 393.235 624.126C393.235 617.516 392.263 612.025 390.319 607.651C388.473 603.18 385.654 599.826 381.863 597.591C378.073 595.355 373.358 594.238 367.721 594.238C362.084 594.238 357.37 595.355 353.579 597.591C349.788 599.826 346.921 603.18 344.977 607.651C343.13 612.025 342.207 617.516 342.207 624.126C342.207 630.735 343.13 636.275 344.977 640.746C346.921 645.12 349.788 648.425 353.579 650.66C357.37 652.896 362.084 654.014 367.721 654.014Z" fill="#00FF38"/>
<path d="M424.627 677.341V570.91H461.076C479.932 570.91 493.637 575.138 502.19 583.594C510.743 591.953 515.02 605.464 515.02 624.126C515.02 642.787 510.743 656.346 502.19 664.802C493.637 673.161 479.932 677.341 461.076 677.341H424.627ZM462.971 654.014C468.706 654.014 473.177 653.139 476.384 651.389C479.592 649.64 481.827 646.578 483.091 642.204C484.451 637.83 485.132 631.756 485.132 623.98C485.132 616.301 484.451 610.324 483.091 606.047C481.827 601.673 479.592 598.611 476.384 596.862C473.177 595.112 468.706 594.238 462.971 594.238H453.786V654.014H462.971Z" fill="#FF00D6"/>
<path d="M424.627 677.341V570.91H461.076C479.932 570.91 493.637 575.138 502.19 583.594C510.743 591.953 515.02 605.464 515.02 624.126C515.02 642.787 510.743 656.346 502.19 664.802C493.637 673.161 479.932 677.341 461.076 677.341H424.627ZM462.971 654.014C468.706 654.014 473.177 653.139 476.384 651.389C479.592 649.64 481.827 646.578 483.091 642.204C484.451 637.83 485.132 631.756 485.132 623.98C485.132 616.301 484.451 610.324 483.091 606.047C481.827 601.673 479.592 598.611 476.384 596.862C473.177 595.112 468.706 594.238 462.971 594.238H453.786V654.014H462.971Z" fill="#FF3D00"/>
<path d="M424.627 677.341V570.91H461.076C479.932 570.91 493.637 575.138 502.19 583.594C510.743 591.953 515.02 605.464 515.02 624.126C515.02 642.787 510.743 656.346 502.19 664.802C493.637 673.161 479.932 677.341 461.076 677.341H424.627ZM462.971 654.014C468.706 654.014 473.177 653.139 476.384 651.389C479.592 649.64 481.827 646.578 483.091 642.204C484.451 637.83 485.132 631.756 485.132 623.98C485.132 616.301 484.451 610.324 483.091 606.047C481.827 601.673 479.592 598.611 476.384 596.862C473.177 595.112 468.706 594.238 462.971 594.238H453.786V654.014H462.971Z" fill="#00FF38"/>
<path d="M516.472 677.341V570.91H553.213C569.444 570.91 581.448 573.729 589.224 579.366C597.097 585.004 601.033 593.606 601.033 605.172C601.033 616.544 597.437 625.243 590.245 631.27C583.149 637.296 572.798 640.309 559.19 640.309H531.052V619.023H554.671C560.405 619.023 564.585 618.051 567.209 616.107C569.833 614.066 571.145 610.907 571.145 606.63C571.145 602.353 569.833 599.243 567.209 597.299C564.585 595.258 560.405 594.238 554.671 594.238H545.631V677.341H516.472ZM576.248 677.341L538.487 629.666H569.396L608.323 677.341H576.248Z" fill="#FF00D6"/>
<path d="M516.472 677.341V570.91H553.213C569.444 570.91 581.448 573.729 589.224 579.366C597.097 585.004 601.033 593.606 601.033 605.172C601.033 616.544 597.437 625.243 590.245 631.27C583.149 637.296 572.798 640.309 559.19 640.309H531.052V619.023H554.671C560.405 619.023 564.585 618.051 567.209 616.107C569.833 614.066 571.145 610.907 571.145 606.63C571.145 602.353 569.833 599.243 567.209 597.299C564.585 595.258 560.405 594.238 554.671 594.238H545.631V677.341H516.472ZM576.248 677.341L538.487 629.666H569.396L608.323 677.341H576.248Z" fill="#FF3D00"/>
<path d="M516.472 677.341V570.91H553.213C569.444 570.91 581.448 573.729 589.224 579.366C597.097 585.004 601.033 593.606 601.033 605.172C601.033 616.544 597.437 625.243 590.245 631.27C583.149 637.296 572.798 640.309 559.19 640.309H531.052V619.023H554.671C560.405 619.023 564.585 618.051 567.209 616.107C569.833 614.066 571.145 610.907 571.145 606.63C571.145 602.353 569.833 599.243 567.209 597.299C564.585 595.258 560.405 594.238 554.671 594.238H545.631V677.341H516.472ZM576.248 677.341L538.487 629.666H569.396L608.323 677.341H576.248Z" fill="#00FF38"/>
<path d="M658.492 678.799C646.925 678.799 636.962 676.661 628.604 672.384C620.342 668.01 614.024 661.741 609.65 653.576C605.276 645.412 603.089 635.595 603.089 624.126C603.089 612.656 605.276 602.839 609.65 594.675C614.024 586.51 620.342 580.29 628.604 576.013C636.962 571.639 646.925 569.452 658.492 569.452C670.155 569.452 680.118 571.639 688.38 576.013C696.641 580.29 702.959 586.51 707.333 594.675C711.707 602.839 713.894 612.656 713.894 624.126C713.894 635.595 711.707 645.412 707.333 653.576C702.959 661.741 696.641 668.01 688.38 672.384C680.118 676.661 670.155 678.799 658.492 678.799ZM658.492 654.014C664.129 654.014 668.843 652.896 672.634 650.66C676.424 648.425 679.243 645.12 681.09 640.746C683.034 636.275 684.006 630.735 684.006 624.126C684.006 617.516 683.034 612.025 681.09 607.651C679.243 603.18 676.424 599.826 672.634 597.591C668.843 595.355 664.129 594.238 658.492 594.238C652.854 594.238 648.14 595.355 644.349 597.591C640.559 599.826 637.691 603.18 635.747 607.651C633.901 612.025 632.977 617.516 632.977 624.126C632.977 630.735 633.901 636.275 635.747 640.746C637.691 645.12 640.559 648.425 644.349 650.66C648.14 652.896 652.854 654.014 658.492 654.014ZM619.127 563.621L642.454 531.546H674.529L697.856 563.621H667.239L658.637 549.041H658.346L649.744 563.621H619.127Z" fill="#FF00D6"/>
<path d="M658.492 678.799C646.925 678.799 636.962 676.661 628.604 672.384C620.342 668.01 614.024 661.741 609.65 653.576C605.276 645.412 603.089 635.595 603.089 624.126C603.089 612.656 605.276 602.839 609.65 594.675C614.024 586.51 620.342 580.29 628.604 576.013C636.962 571.639 646.925 569.452 658.492 569.452C670.155 569.452 680.118 571.639 688.38 576.013C696.641 580.29 702.959 586.51 707.333 594.675C711.707 602.839 713.894 612.656 713.894 624.126C713.894 635.595 711.707 645.412 707.333 653.576C702.959 661.741 696.641 668.01 688.38 672.384C680.118 676.661 670.155 678.799 658.492 678.799ZM658.492 654.014C664.129 654.014 668.843 652.896 672.634 650.66C676.424 648.425 679.243 645.12 681.09 640.746C683.034 636.275 684.006 630.735 684.006 624.126C684.006 617.516 683.034 612.025 681.09 607.651C679.243 603.18 676.424 599.826 672.634 597.591C668.843 595.355 664.129 594.238 658.492 594.238C652.854 594.238 648.14 595.355 644.349 597.591C640.559 599.826 637.691 603.18 635.747 607.651C633.901 612.025 632.977 617.516 632.977 624.126C632.977 630.735 633.901 636.275 635.747 640.746C637.691 645.12 640.559 648.425 644.349 650.66C648.14 652.896 652.854 654.014 658.492 654.014ZM619.127 563.621L642.454 531.546H674.529L697.856 563.621H667.239L658.637 549.041H658.346L649.744 563.621H619.127Z" fill="#FF3D00"/>
<path d="M658.492 678.799C646.925 678.799 636.962 676.661 628.604 672.384C620.342 668.01 614.024 661.741 609.65 653.576C605.276 645.412 603.089 635.595 603.089 624.126C603.089 612.656 605.276 602.839 609.65 594.675C614.024 586.51 620.342 580.29 628.604 576.013C636.962 571.639 646.925 569.452 658.492 569.452C670.155 569.452 680.118 571.639 688.38 576.013C696.641 580.29 702.959 586.51 707.333 594.675C711.707 602.839 713.894 612.656 713.894 624.126C713.894 635.595 711.707 645.412 707.333 653.576C702.959 661.741 696.641 668.01 688.38 672.384C680.118 676.661 670.155 678.799 658.492 678.799ZM658.492 654.014C664.129 654.014 668.843 652.896 672.634 650.66C676.424 648.425 679.243 645.12 681.09 640.746C683.034 636.275 684.006 630.735 684.006 624.126C684.006 617.516 683.034 612.025 681.09 607.651C679.243 603.18 676.424 599.826 672.634 597.591C668.843 595.355 664.129 594.238 658.492 594.238C652.854 594.238 648.14 595.355 644.349 597.591C640.559 599.826 637.691 603.18 635.747 607.651C633.901 612.025 632.977 617.516 632.977 624.126C632.977 630.735 633.901 636.275 635.747 640.746C637.691 645.12 640.559 648.425 644.349 650.66C648.14 652.896 652.854 654.014 658.492 654.014ZM619.127 563.621L642.454 531.546H674.529L697.856 563.621H667.239L658.637 549.041H658.346L649.744 563.621H619.127Z" fill="#00FF38"/>
<path d="M715.397 677.341V570.91H751.555L770.654 627.77H770.945L790.044 570.91H826.202V677.341H797.043V616.107H796.751L783.921 654.743H757.678L744.848 616.107H744.556V677.341H715.397Z" fill="#FF00D6"/>
<path d="M715.397 677.341V570.91H751.555L770.654 627.77H770.945L790.044 570.91H826.202V677.341H797.043V616.107H796.751L783.921 654.743H757.678L744.848 616.107H744.556V677.341H715.397Z" fill="#FF3D00"/>
<path d="M715.397 677.341V570.91H751.555L770.654 627.77H770.945L790.044 570.91H826.202V677.341H797.043V616.107H796.751L783.921 654.743H757.678L744.848 616.107H744.556V677.341H715.397Z" fill="#00FF38"/>
<path d="M832.016 677.341V570.91H909.288V594.238H861.175V611.441H906.372V633.894H861.175V654.014H909.288V677.341H832.016Z" fill="#FF00D6"/>
<path d="M832.016 677.341V570.91H909.288V594.238H861.175V611.441H906.372V633.894H861.175V654.014H909.288V677.341H832.016Z" fill="#FF3D00"/>
<path d="M832.016 677.341V570.91H909.288V594.238H861.175V611.441H906.372V633.894H861.175V654.014H909.288V677.341H832.016Z" fill="#00FF38"/>
</svg>
